<svg width="32" height="32" viewBox="0 0 32 32" fill="none" xmlns="http://www.w3.org/2000/svg">
<path d="M15.0667 1.7928C15.5802 0.735732 16.4195 0.735732 16.933 1.7928L20.327 8.78057C20.8404 9.83714 22.2002 10.8407 23.3482 11.0103L30.9366 12.1309C32.0847 12.3 32.3441 13.1119 31.5136 13.9349L26.022 19.3743C25.1909 20.1967 24.6721 21.8206 24.868 22.9822L26.1647 30.6624C26.3602 31.824 25.6813 32.3258 24.6543 31.7775L17.8669 28.151C16.8405 27.6027 15.1597 27.6027 14.1333 28.151L7.34588 31.7775C6.31894 32.3263 5.63956 31.8245 5.83599 30.6624L7.13222 22.9822C7.32865 21.8206 6.80927 20.1972 5.97826 19.3743L0.486603 13.9349C-0.344407 13.1114 -0.0844705 12.3 1.06358 12.1309L8.65197 11.0103C9.80002 10.8407 11.1598 9.83714 11.6727 8.78057L15.0667 1.7928Z" fill="url(#paint0_linear_6939_404)"/>
<path d="M30.9522 11.9747L23.4749 10.8698C22.3436 10.7026 21.0038 9.71315 20.4979 8.67141L17.1536 1.78168C16.6476 0.73944 15.8205 0.73944 15.3146 1.78168L11.9703 8.67141C11.4648 9.71315 10.125 10.7026 8.99375 10.8698L7 11.1648C10.7852 14.6383 17.4495 18.7313 27.3494 17.8883L31.5207 13.7539C32.3391 12.942 32.0834 12.1414 30.9522 11.9747Z" fill="url(#paint1_linear_6939_404)"/>
<defs>
<linearGradient id="paint0_linear_6939_404" x1="16.0001" y1="32.0001" x2="16.0001" y2="0.999874" gradientUnits="userSpaceOnUse">
<stop stop-color="#E6B400"/>
<stop offset="0.2047" stop-color="#E4AF00"/>
<stop offset="0.4426" stop-color="#DFA100"/>
<stop offset="0.6971" stop-color="#D68A00"/>
<stop offset="0.9616" stop-color="#CA6900"/>
<stop offset="1" stop-color="#C86400"/>
</linearGradient>
<linearGradient id="paint1_linear_6939_404" x1="19.5" y1="17.9998" x2="19.5" y2="0.999876" gradientUnits="userSpaceOnUse">
<stop stop-color="#E6B400"/>
<stop offset="0.2047" stop-color="#E4AF00"/>
<stop offset="0.4426" stop-color="#DFA100"/>
<stop offset="0.6971" stop-color="#D68A00"/>
<stop offset="0.9616" stop-color="#CA6900"/>
<stop offset="1" stop-color="#C86400"/>
</linearGradient>
</defs>
</svg>
