<svg width="51" height="51" viewBox="0 0 51 51" fill="none" xmlns="http://www.w3.org/2000/svg">
<path d="M18.3438 21.6719H11.7812C11.4914 21.6727 11.2137 21.7883 11.0088 21.9932C10.8039 22.1981 10.6884 22.4758 10.6875 22.7656V39.1719C10.6884 39.4617 10.8039 39.7394 11.0088 39.9443C11.2137 40.1492 11.4914 40.2648 11.7812 40.2656H18.3438C18.6336 40.2648 18.9113 40.1492 19.1162 39.9443C19.3211 39.7394 19.4366 39.4617 19.4375 39.1719V22.7656C19.4366 22.4758 19.3211 22.1981 19.1162 21.9932C18.9113 21.7883 18.6336 21.6727 18.3438 21.6719ZM16.1562 34.25C16.1562 35.3438 14.5156 35.3438 14.5156 35.3438C14.5156 35.3438 12.875 35.3438 12.875 34.25C12.875 34.25 12.875 30.4219 15.0625 29.3281L15.6094 28.7812C15.1466 28.964 14.6354 28.9833 14.1602 28.8359C13.9272 28.7432 13.6681 28.7399 13.4329 28.8267C13.1976 28.9136 13.0028 29.0844 12.8859 29.3062L12.875 29.3281H12.3281V26.5938H13.4219V27.1406C13.8816 26.7604 14.4666 26.5654 15.0625 26.5938C15.4338 26.5888 15.8022 26.6595 16.1453 26.8016C16.328 26.8802 16.5299 26.9029 16.7256 26.8669C16.9212 26.8309 17.1018 26.7378 17.2445 26.5992L17.25 26.5938H17.7969V28.2344C17.7969 28.2344 15.6094 31.5156 15.6094 32.0625C15.6094 33.1562 16.1562 33.1562 16.1562 34.25Z" fill="#F7F3E1"/>
<path d="M29.2812 21.6719H22.7188C22.4289 21.6727 22.1512 21.7883 21.9463 21.9932C21.7414 22.1981 21.6259 22.4758 21.625 22.7656V39.1719C21.6259 39.4617 21.7414 39.7394 21.9463 39.9443C22.1512 40.1492 22.4289 40.2648 22.7188 40.2656H29.2812C29.5711 40.2648 29.8488 40.1492 30.0537 39.9443C30.2586 39.7394 30.3741 39.4617 30.375 39.1719V22.7656C30.3741 22.4758 30.2586 22.1981 30.0537 21.9932C29.8488 21.7883 29.5711 21.6727 29.2812 21.6719ZM27.0938 34.25C27.0938 35.3438 25.4531 35.3438 25.4531 35.3438C25.4531 35.3438 23.8125 35.3438 23.8125 34.25C23.8125 34.25 23.8125 30.4219 26 29.3281L26.5469 28.7812C26.0841 28.964 25.5729 28.9833 25.0977 28.8359C24.8647 28.7432 24.6056 28.7399 24.3704 28.8267C24.1351 28.9136 23.9403 29.0844 23.8234 29.3062L23.8125 29.3281H23.2656V26.5938H24.3594V27.1406C24.8191 26.7604 25.4041 26.5654 26 26.5938C26.3713 26.5888 26.7397 26.6595 27.0828 26.8016C27.2655 26.8802 27.4674 26.9029 27.6631 26.8669C27.8587 26.8309 28.0393 26.7378 28.182 26.5992L28.1875 26.5938H28.7344V28.2344C28.7344 28.2344 26.5469 31.5156 26.5469 32.0625C26.5469 33.1562 27.0938 33.1562 27.0938 34.25Z" fill="#F7F3E1"/>
<path d="M40.2188 21.6719H33.6562C33.3664 21.6727 33.0887 21.7883 32.8838 21.9932C32.6789 22.1981 32.5634 22.4758 32.5625 22.7656V39.1719C32.5634 39.4617 32.6789 39.7394 32.8838 39.9443C33.0887 40.1492 33.3664 40.2648 33.6562 40.2656H40.2188C40.5086 40.2648 40.7863 40.1492 40.9912 39.9443C41.1961 39.7394 41.3116 39.4617 41.3125 39.1719V22.7656C41.3116 22.4758 41.1961 22.1981 40.9912 21.9932C40.7863 21.7883 40.5086 21.6727 40.2188 21.6719ZM38.0312 34.25C38.0312 35.3438 36.3906 35.3438 36.3906 35.3438C36.3906 35.3438 34.75 35.3438 34.75 34.25C34.75 34.25 34.75 30.4219 36.9375 29.3281L37.4844 28.7812C37.0216 28.964 36.5104 28.9833 36.0352 28.8359C35.8022 28.7432 35.5431 28.7399 35.3079 28.8267C35.0726 28.9136 34.8778 29.0844 34.7609 29.3062L34.75 29.3281H34.2031V26.5938H35.2969V27.1406C35.7566 26.7604 36.3416 26.5654 36.9375 26.5938C37.3088 26.5888 37.6772 26.6595 38.0203 26.8016C38.203 26.8802 38.4049 26.9029 38.6006 26.8669C38.7962 26.8309 38.9768 26.7378 39.1195 26.5992L39.125 26.5938H39.6719V28.2344C39.6719 28.2344 37.4844 31.5156 37.4844 32.0625C37.4844 33.1562 38.0312 33.1562 38.0312 34.25Z" fill="#F7F3E1"/>
<path d="M39.6719 26.5939V28.2346C39.6719 28.2346 37.4844 31.5158 37.4844 32.0627C37.4844 33.1564 38.0312 33.1564 38.0312 34.2502C38.0312 35.3439 36.3906 35.3439 36.3906 35.3439C36.3906 35.3439 34.75 35.3439 34.75 34.2502C34.75 34.2502 34.75 30.4221 36.9375 29.3283L37.4844 28.7814C37.0216 28.9642 36.5104 28.9835 36.0352 28.8361C35.8022 28.7434 35.5431 28.7401 35.3079 28.8269C35.0726 28.9137 34.8778 29.0845 34.7609 29.3064L34.75 29.3283H34.2031V26.5939H35.2969V27.1408C35.7566 26.7606 36.3416 26.5656 36.9375 26.5939C37.3088 26.589 37.6772 26.6597 38.0203 26.8017C38.203 26.8804 38.4049 26.9031 38.6006 26.8671C38.7962 26.8311 38.9768 26.7379 39.1195 26.5994L39.125 26.5939H39.6719Z" fill="#D1013E"/>
<path d="M28.7344 28.2346C28.7344 28.2346 26.5469 31.5158 26.5469 32.0627C26.5469 33.1564 27.0938 33.1564 27.0938 34.2502C27.0938 35.3439 25.4531 35.3439 25.4531 35.3439C25.4531 35.3439 23.8125 35.3439 23.8125 34.2502C23.8125 34.2502 23.8125 30.4221 26 29.3283L26.5469 28.7814C26.0841 28.9642 25.5729 28.9835 25.0977 28.8361C24.8647 28.7434 24.6056 28.7401 24.3704 28.8269C24.1351 28.9137 23.9403 29.0845 23.8234 29.3064L23.8125 29.3283H23.2656V26.5939H24.3594V27.1408C24.8191 26.7606 25.4041 26.5656 26 26.5939C26.3713 26.589 26.7397 26.6597 27.0828 26.8017C27.2655 26.8804 27.4674 26.9031 27.6631 26.8671C27.8587 26.8311 28.0393 26.7379 28.182 26.5994L28.1875 26.5939H28.7344V28.2346Z" fill="#D1013E"/>
<path d="M17.7969 26.5939V28.2346C17.7969 28.2346 15.6094 31.5158 15.6094 32.0627C15.6094 33.1564 16.1562 33.1564 16.1562 34.2502C16.1562 35.3439 14.5156 35.3439 14.5156 35.3439C14.5156 35.3439 12.875 35.3439 12.875 34.2502C12.875 34.2502 12.875 30.4221 15.0625 29.3283L15.6094 28.7814C15.1466 28.9642 14.6354 28.9835 14.1602 28.8361C13.9272 28.7434 13.6681 28.7401 13.4329 28.8269C13.1976 28.9137 13.0028 29.0845 12.8859 29.3064L12.875 29.3283H12.3281V26.5939H13.4219V27.1408C13.8816 26.7606 14.4666 26.5656 15.0625 26.5939C15.4338 26.589 15.8022 26.6597 16.1453 26.8017C16.328 26.8804 16.5299 26.9031 16.7256 26.8671C16.9212 26.8311 17.1018 26.7379 17.2445 26.5994L17.25 26.5939H17.7969Z" fill="#D1013E"/>
<path d="M40.7656 8.54688H11.2344C10.0263 8.54688 9.04688 9.52625 9.04688 10.7344V17.2969C9.04688 18.505 10.0263 19.4844 11.2344 19.4844H40.7656C41.9737 19.4844 42.9531 18.505 42.9531 17.2969V10.7344C42.9531 9.52625 41.9737 8.54688 40.7656 8.54688Z" fill="#FFFCED"/>
<path d="M40.7656 8.54688H11.2344C10.6542 8.54688 10.0978 8.77734 9.68758 9.18758C9.27734 9.59781 9.04688 10.1542 9.04688 10.7344V12.9219C9.04688 12.3417 9.27734 11.7853 9.68758 11.3751C10.0978 10.9648 10.6542 10.7344 11.2344 10.7344H40.7656C41.3458 10.7344 41.9022 10.9648 42.3124 11.3751C42.7227 11.7853 42.9531 12.3417 42.9531 12.9219V10.7344C42.9531 10.1542 42.7227 9.59781 42.3124 9.18758C41.9022 8.77734 41.3458 8.54688 40.7656 8.54688Z" fill="#F0EBD7"/>
<path d="M11.2344 19.4844H40.7656C41.3458 19.4844 41.9022 19.2539 42.3124 18.8437C42.7227 18.4334 42.9531 17.877 42.9531 17.2969V15.1094C42.9531 15.6895 42.7227 16.2459 42.3124 16.6562C41.9022 17.0664 41.3458 17.2969 40.7656 17.2969H11.2344C10.6542 17.2969 10.0978 17.0664 9.68758 16.6562C9.27734 16.2459 9.04688 15.6895 9.04688 15.1094V17.2969C9.04688 17.877 9.27734 18.4334 9.68758 18.8437C10.0978 19.2539 10.6542 19.4844 11.2344 19.4844Z" fill="#F0EBD7"/>
<path d="M10.6875 22.7656V39.1719C10.6884 39.4617 10.8039 39.7394 11.0088 39.9443C11.2137 40.1492 11.4914 40.2648 11.7812 40.2656H18.3438C18.6336 40.2648 18.9113 40.1492 19.1162 39.9443C19.3211 39.7394 19.4366 39.4617 19.4375 39.1719V22.7656C19.4366 22.4758 19.3211 22.1981 19.1162 21.9932C18.9113 21.7883 18.6336 21.6727 18.3438 21.6719H11.7812C11.4914 21.6727 11.2137 21.7883 11.0088 21.9932C10.8039 22.1981 10.6884 22.4758 10.6875 22.7656ZM41.3125 39.1719V22.7656C41.3116 22.4758 41.1961 22.1981 40.9912 21.9932C40.7863 21.7883 40.5086 21.6727 40.2188 21.6719H33.6562C33.3664 21.6727 33.0887 21.7883 32.8838 21.9932C32.6789 22.1981 32.5634 22.4758 32.5625 22.7656V39.1719C32.5634 39.4617 32.6789 39.7394 32.8838 39.9443C33.0887 40.1492 33.3664 40.2648 33.6562 40.2656H40.2188C40.5086 40.2648 40.7863 40.1492 40.9912 39.9443C41.1961 39.7394 41.3116 39.4617 41.3125 39.1719ZM42.9531 21.6719V40.2656C42.9531 40.8458 42.7227 41.4022 42.3124 41.8124C41.9022 42.2227 41.3458 42.4531 40.7656 42.4531H11.2344C10.6542 42.4531 10.0978 42.2227 9.68758 41.8124C9.27734 41.4022 9.04688 40.8458 9.04688 40.2656V21.6719C9.04688 21.0917 9.27734 20.5353 9.68758 20.1251C10.0978 19.7148 10.6542 19.4844 11.2344 19.4844H40.7656C41.3458 19.4844 41.9022 19.7148 42.3124 20.1251C42.7227 20.5353 42.9531 21.0917 42.9531 21.6719ZM30.375 39.1719V22.7656C30.3741 22.4758 30.2586 22.1981 30.0537 21.9932C29.8488 21.7883 29.5711 21.6727 29.2812 21.6719H22.7188C22.4289 21.6727 22.1512 21.7883 21.9463 21.9932C21.7414 22.1981 21.6259 22.4758 21.625 22.7656V39.1719C21.6259 39.4617 21.7414 39.7394 21.9463 39.9443C22.1512 40.1492 22.4289 40.2648 22.7188 40.2656H29.2812C29.5711 40.2648 29.8488 40.1492 30.0537 39.9443C30.2586 39.7394 30.3741 39.4617 30.375 39.1719Z" fill="#D1013E"/>
<path d="M40.7656 8.54688H11.2344C10.6542 8.54688 10.0978 8.77734 9.68758 9.18758C9.27734 9.59781 9.04688 10.1542 9.04688 10.7344V17.2969C9.04688 17.877 9.27734 18.4334 9.68758 18.8437C10.0978 19.2539 10.6542 19.4844 11.2344 19.4844H40.7656C41.3458 19.4844 41.9022 19.2539 42.3124 18.8437C42.7227 18.4334 42.9531 17.877 42.9531 17.2969V10.7344C42.9531 10.1542 42.7227 9.59781 42.3124 9.18758C41.9022 8.77734 41.3458 8.54688 40.7656 8.54688ZM41.8594 17.2969C41.8594 17.587 41.7441 17.8652 41.539 18.0703C41.3339 18.2754 41.0557 18.3906 40.7656 18.3906H11.2344C10.9443 18.3906 10.6661 18.2754 10.461 18.0703C10.2559 17.8652 10.1406 17.587 10.1406 17.2969V10.7344C10.1406 10.4443 10.2559 10.1661 10.461 9.96098C10.6661 9.75586 10.9443 9.64062 11.2344 9.64062H40.7656C41.0557 9.64062 41.3339 9.75586 41.539 9.96098C41.7441 10.1661 41.8594 10.4443 41.8594 10.7344V17.2969Z" fill="#D1013E"/>
<path d="M42.4062 11.2812C42.7083 11.2812 42.9531 11.0364 42.9531 10.7344C42.9531 10.4323 42.7083 10.1875 42.4062 10.1875C42.1042 10.1875 41.8594 10.4323 41.8594 10.7344C41.8594 11.0364 42.1042 11.2812 42.4062 11.2812Z" fill="#FF9C00"/>
<path d="M42.4062 12.9219C42.7083 12.9219 42.9531 12.677 42.9531 12.375C42.9531 12.073 42.7083 11.8281 42.4062 11.8281C42.1042 11.8281 41.8594 12.073 41.8594 12.375C41.8594 12.677 42.1042 12.9219 42.4062 12.9219Z" fill="#FF9C00"/>
<path d="M42.4062 14.5625C42.7083 14.5625 42.9531 14.3177 42.9531 14.0156C42.9531 13.7136 42.7083 13.4688 42.4062 13.4688C42.1042 13.4688 41.8594 13.7136 41.8594 14.0156C41.8594 14.3177 42.1042 14.5625 42.4062 14.5625Z" fill="#FF9C00"/>
<path d="M42.4062 16.2031C42.7083 16.2031 42.9531 15.9583 42.9531 15.6562C42.9531 15.3542 42.7083 15.1094 42.4062 15.1094C42.1042 15.1094 41.8594 15.3542 41.8594 15.6562C41.8594 15.9583 42.1042 16.2031 42.4062 16.2031Z" fill="#FF9C00"/>
<path d="M42.4062 17.8438C42.7083 17.8438 42.9531 17.5989 42.9531 17.2969C42.9531 16.9948 42.7083 16.75 42.4062 16.75C42.1042 16.75 41.8594 16.9948 41.8594 17.2969C41.8594 17.5989 42.1042 17.8438 42.4062 17.8438Z" fill="#FF9C00"/>
<path d="M9.59375 11.2812C9.89578 11.2812 10.1406 11.0364 10.1406 10.7344C10.1406 10.4323 9.89578 10.1875 9.59375 10.1875C9.29172 10.1875 9.04688 10.4323 9.04688 10.7344C9.04688 11.0364 9.29172 11.2812 9.59375 11.2812Z" fill="#FF9C00"/>
<path d="M9.59375 12.9219C9.89578 12.9219 10.1406 12.677 10.1406 12.375C10.1406 12.073 9.89578 11.8281 9.59375 11.8281C9.29172 11.8281 9.04688 12.073 9.04688 12.375C9.04688 12.677 9.29172 12.9219 9.59375 12.9219Z" fill="#FF9C00"/>
<path d="M9.59375 14.5625C9.89578 14.5625 10.1406 14.3177 10.1406 14.0156C10.1406 13.7136 9.89578 13.4688 9.59375 13.4688C9.29172 13.4688 9.04688 13.7136 9.04688 14.0156C9.04688 14.3177 9.29172 14.5625 9.59375 14.5625Z" fill="#FF9C00"/>
<path d="M9.59375 16.2031C9.89578 16.2031 10.1406 15.9583 10.1406 15.6562C10.1406 15.3542 9.89578 15.1094 9.59375 15.1094C9.29172 15.1094 9.04688 15.3542 9.04688 15.6562C9.04688 15.9583 9.29172 16.2031 9.59375 16.2031Z" fill="#FF9C00"/>
<path d="M9.59375 17.8438C9.89578 17.8438 10.1406 17.5989 10.1406 17.2969C10.1406 16.9948 9.89578 16.75 9.59375 16.75C9.29172 16.75 9.04688 16.9948 9.04688 17.2969C9.04688 17.5989 9.29172 17.8438 9.59375 17.8438Z" fill="#FF9C00"/>
<path d="M14.2422 11.2812C14.2422 11.1362 14.1846 10.9971 14.082 10.8946C13.9795 10.792 13.8404 10.7344 13.6953 10.7344H12.6016V11.8281H13.1484V15.3828C13.1484 15.4905 13.1272 15.5972 13.086 15.6967C13.0448 15.7963 12.9843 15.8867 12.9082 15.9629C12.832 16.039 12.7416 16.0995 12.642 16.1407C12.5425 16.1819 12.4358 16.2031 12.3281 16.2031C12.2204 16.2031 12.1137 16.1819 12.0142 16.1407C11.9147 16.0995 11.8242 16.039 11.7481 15.9629C11.6719 15.8867 11.6115 15.7963 11.5703 15.6967C11.529 15.5972 11.5078 15.4905 11.5078 15.3828V14.0156H10.4141V15.3828C10.4141 15.8905 10.6157 16.3773 10.9747 16.7363C11.3336 17.0952 11.8205 17.2969 12.3281 17.2969C12.8358 17.2969 13.3226 17.0952 13.6816 16.7363C14.0405 16.3773 14.2422 15.8905 14.2422 15.3828V11.2812Z" fill="#D1013E"/>
<path d="M21.2144 11.6952C20.7568 12.155 20.4456 12.74 20.32 13.3764C20.1944 14.0128 20.26 14.6722 20.5087 15.2714C20.7574 15.8705 21.1779 16.3826 21.7172 16.7431C22.2565 17.1036 22.8905 17.2963 23.5392 17.2969H24.0861V16.2031H23.5392C22.959 16.2031 22.4026 15.9727 21.9924 15.5624C21.5822 15.1522 21.3517 14.5958 21.3517 14.0156C21.3517 13.4355 21.5822 12.8791 21.9924 12.4688C22.4026 12.0586 22.959 11.8281 23.5392 11.8281H24.0861V10.7344H23.5392C23.1076 10.7339 22.6801 10.8185 22.2812 10.9834C21.8823 11.1483 21.5198 11.3902 21.2144 11.6952Z" fill="#D1013E"/>
<path d="M27.3672 11.5656L25.7266 12.8781V10.7344H24.6328V17.2969H25.7266V15.1531L27.3672 16.4656V17.2969H28.4609V16.2031C28.461 16.1211 28.4426 16.0401 28.4071 15.9662C28.3716 15.8923 28.3199 15.8273 28.2559 15.776L26.0547 14.0156L28.2553 12.2552C28.3194 12.204 28.3712 12.1391 28.4068 12.0651C28.4424 11.9912 28.4609 11.9102 28.4609 11.8281V10.7344H27.3672V11.5656Z" fill="#D1013E"/>
<path d="M31.4688 10.7344H29.5547C29.4096 10.7344 29.2705 10.792 29.168 10.8946C29.0654 10.9971 29.0078 11.1362 29.0078 11.2812V17.2969H30.1016V14.5625H31.4688C31.9764 14.5625 32.4632 14.3608 32.8222 14.0019C33.1812 13.6429 33.3828 13.1561 33.3828 12.6484C33.3828 12.1408 33.1812 11.6539 32.8222 11.295C32.4632 10.936 31.9764 10.7344 31.4688 10.7344ZM32.0501 13.2298C31.9738 13.3061 31.8832 13.3665 31.7834 13.4075C31.6836 13.4485 31.5766 13.4694 31.4688 13.4688H30.1016V11.8281H31.4688C31.6314 11.8276 31.7905 11.8755 31.9258 11.9656C32.0612 12.0557 32.1667 12.184 32.229 12.3342C32.2913 12.4844 32.3076 12.6497 32.2757 12.8092C32.2439 12.9686 32.1653 13.115 32.0501 13.2298Z" fill="#D1013E"/>
<path d="M36.1172 10.7344C35.537 10.7344 34.9806 10.9648 34.5704 11.3751C34.1602 11.7853 33.9297 12.3417 33.9297 12.9219V15.1094C33.9297 15.6895 34.1602 16.2459 34.5704 16.6562C34.9806 17.0664 35.537 17.2969 36.1172 17.2969C36.6973 17.2969 37.2537 17.0664 37.664 16.6562C38.0742 16.2459 38.3047 15.6895 38.3047 15.1094V12.9219C38.3047 12.3417 38.0742 11.7853 37.664 11.3751C37.2537 10.9648 36.6973 10.7344 36.1172 10.7344ZM37.2109 15.1094C37.2109 15.3995 37.0957 15.6777 36.8906 15.8828C36.6855 16.0879 36.4073 16.2031 36.1172 16.2031C35.8271 16.2031 35.5489 16.0879 35.3438 15.8828C35.1387 15.6777 35.0234 15.3995 35.0234 15.1094V12.9219C35.0234 12.6318 35.1387 12.3536 35.3438 12.1485C35.5489 11.9434 35.8271 11.8281 36.1172 11.8281C36.4073 11.8281 36.6855 11.9434 36.8906 12.1485C37.0957 12.3536 37.2109 12.6318 37.2109 12.9219V15.1094Z" fill="#D1013E"/>
<path d="M41.5859 10.7344H38.3047V11.8281H39.3984V17.2969H40.4922V11.8281H41.5859V10.7344Z" fill="#D1013E"/>
<path d="M18.5942 11.1243C18.5605 11.0116 18.4912 10.9128 18.3969 10.8425C18.3025 10.7723 18.188 10.7344 18.0703 10.7344H16.9766C16.8589 10.7344 16.7444 10.7723 16.65 10.8425C16.5556 10.9128 16.4864 11.0116 16.4527 11.1243L14.9291 16.2031H14.2422V17.2969H16.4297V16.2031H16.0709L16.3991 15.1094H18.6478L18.9759 16.2031H18.6172V17.2969H20.8047V16.2031H20.1178L18.5942 11.1243ZM16.7272 14.0156L17.3834 11.8281H17.6634L18.3197 14.0156H16.7272Z" fill="#D1013E"/>
<path d="M40.2188 21.6719H33.6562C33.3664 21.6727 33.0887 21.7883 32.8838 21.9932C32.6789 22.1981 32.5634 22.4758 32.5625 22.7656V24.4062C32.5634 24.1164 32.6789 23.8387 32.8838 23.6338C33.0887 23.4289 33.3664 23.3134 33.6562 23.3125H40.2188C40.5086 23.3134 40.7863 23.4289 40.9912 23.6338C41.1961 23.8387 41.3116 24.1164 41.3125 24.4062V22.7656C41.3116 22.4758 41.1961 22.1981 40.9912 21.9932C40.7863 21.7883 40.5086 21.6727 40.2188 21.6719Z" fill="#D9D4C2"/>
<path d="M40.2188 38.625H33.6562C33.3664 38.6241 33.0887 38.5086 32.8838 38.3037C32.6789 38.0988 32.5634 37.8211 32.5625 37.5312V39.1719C32.5634 39.4617 32.6789 39.7394 32.8838 39.9443C33.0887 40.1492 33.3664 40.2648 33.6562 40.2656H40.2188C40.5086 40.2648 40.7863 40.1492 40.9912 39.9443C41.1961 39.7394 41.3116 39.4617 41.3125 39.1719V37.5312C41.3116 37.8211 41.1961 38.0988 40.9912 38.3037C40.7863 38.5086 40.5086 38.6241 40.2188 38.625Z" fill="#D9D4C2"/>
<path d="M29.2812 21.6719H22.7188C22.4289 21.6727 22.1512 21.7883 21.9463 21.9932C21.7414 22.1981 21.6259 22.4758 21.625 22.7656V24.4062C21.6259 24.1164 21.7414 23.8387 21.9463 23.6338C22.1512 23.4289 22.4289 23.3134 22.7188 23.3125H29.2812C29.5711 23.3134 29.8488 23.4289 30.0537 23.6338C30.2586 23.8387 30.3741 24.1164 30.375 24.4062V22.7656C30.3741 22.4758 30.2586 22.1981 30.0537 21.9932C29.8488 21.7883 29.5711 21.6727 29.2812 21.6719Z" fill="#D9D4C2"/>
<path d="M29.2812 38.625H22.7188C22.4289 38.6241 22.1512 38.5086 21.9463 38.3037C21.7414 38.0988 21.6259 37.8211 21.625 37.5312V39.1719C21.6259 39.4617 21.7414 39.7394 21.9463 39.9443C22.1512 40.1492 22.4289 40.2648 22.7188 40.2656H29.2812C29.5711 40.2648 29.8488 40.1492 30.0537 39.9443C30.2586 39.7394 30.3741 39.4617 30.375 39.1719V37.5312C30.3741 37.8211 30.2586 38.0988 30.0537 38.3037C29.8488 38.5086 29.5711 38.6241 29.2812 38.625Z" fill="#D9D4C2"/>
<path d="M18.3438 21.6719H11.7812C11.4914 21.6727 11.2137 21.7883 11.0088 21.9932C10.8039 22.1981 10.6884 22.4758 10.6875 22.7656V24.4062C10.6884 24.1164 10.8039 23.8387 11.0088 23.6338C11.2137 23.4289 11.4914 23.3134 11.7812 23.3125H18.3438C18.6336 23.3134 18.9113 23.4289 19.1162 23.6338C19.3211 23.8387 19.4366 24.1164 19.4375 24.4062V22.7656C19.4366 22.4758 19.3211 22.1981 19.1162 21.9932C18.9113 21.7883 18.6336 21.6727 18.3438 21.6719Z" fill="#D9D4C2"/>
<path d="M18.3438 38.625H11.7812C11.4914 38.6241 11.2137 38.5086 11.0088 38.3037C10.8039 38.0988 10.6884 37.8211 10.6875 37.5312V39.1719C10.6884 39.4617 10.8039 39.7394 11.0088 39.9443C11.2137 40.1492 11.4914 40.2648 11.7812 40.2656H18.3438C18.6336 40.2648 18.9113 40.1492 19.1162 39.9443C19.3211 39.7394 19.4366 39.4617 19.4375 39.1719V37.5312C19.4366 37.8211 19.3211 38.0988 19.1162 38.3037C18.9113 38.5086 18.6336 38.6241 18.3438 38.625Z" fill="#D9D4C2"/>
<path d="M40.2188 18.3906H11.7812C11.4792 18.3906 11.2344 18.6355 11.2344 18.9375C11.2344 19.2395 11.4792 19.4844 11.7812 19.4844H40.2188C40.5208 19.4844 40.7656 19.2395 40.7656 18.9375C40.7656 18.6355 40.5208 18.3906 40.2188 18.3906Z" fill="#A80132"/>
<path d="M12.0547 9.64062C12.3567 9.64062 12.6016 9.39578 12.6016 9.09375C12.6016 8.79172 12.3567 8.54688 12.0547 8.54688C11.7527 8.54688 11.5078 8.79172 11.5078 9.09375C11.5078 9.39578 11.7527 9.64062 12.0547 9.64062Z" fill="#FF9C00"/>
<path d="M13.6953 9.64062C13.9973 9.64062 14.2422 9.39578 14.2422 9.09375C14.2422 8.79172 13.9973 8.54688 13.6953 8.54688C13.3933 8.54688 13.1484 8.79172 13.1484 9.09375C13.1484 9.39578 13.3933 9.64062 13.6953 9.64062Z" fill="#FF9C00"/>
<path d="M15.3359 9.64062C15.638 9.64062 15.8828 9.39578 15.8828 9.09375C15.8828 8.79172 15.638 8.54688 15.3359 8.54688C15.0339 8.54688 14.7891 8.79172 14.7891 9.09375C14.7891 9.39578 15.0339 9.64062 15.3359 9.64062Z" fill="#FF9C00"/>
<path d="M16.9766 9.64062C17.2786 9.64062 17.5234 9.39578 17.5234 9.09375C17.5234 8.79172 17.2786 8.54688 16.9766 8.54688C16.6745 8.54688 16.4297 8.79172 16.4297 9.09375C16.4297 9.39578 16.6745 9.64062 16.9766 9.64062Z" fill="#FF9C00"/>
<path d="M18.6172 9.64062C18.9192 9.64062 19.1641 9.39578 19.1641 9.09375C19.1641 8.79172 18.9192 8.54688 18.6172 8.54688C18.3152 8.54688 18.0703 8.79172 18.0703 9.09375C18.0703 9.39578 18.3152 9.64062 18.6172 9.64062Z" fill="#FF9C00"/>
<path d="M20.2578 9.64062C20.5598 9.64062 20.8047 9.39578 20.8047 9.09375C20.8047 8.79172 20.5598 8.54688 20.2578 8.54688C19.9558 8.54688 19.7109 8.79172 19.7109 9.09375C19.7109 9.39578 19.9558 9.64062 20.2578 9.64062Z" fill="#FF9C00"/>
<path d="M21.8984 9.64062C22.2005 9.64062 22.4453 9.39578 22.4453 9.09375C22.4453 8.79172 22.2005 8.54688 21.8984 8.54688C21.5964 8.54688 21.3516 8.79172 21.3516 9.09375C21.3516 9.39578 21.5964 9.64062 21.8984 9.64062Z" fill="#FF9C00"/>
<path d="M23.5391 9.64062C23.8411 9.64062 24.0859 9.39578 24.0859 9.09375C24.0859 8.79172 23.8411 8.54688 23.5391 8.54688C23.237 8.54688 22.9922 8.79172 22.9922 9.09375C22.9922 9.39578 23.237 9.64062 23.5391 9.64062Z" fill="#FF9C00"/>
<path d="M25.1797 9.64062C25.4817 9.64062 25.7266 9.39578 25.7266 9.09375C25.7266 8.79172 25.4817 8.54688 25.1797 8.54688C24.8777 8.54688 24.6328 8.79172 24.6328 9.09375C24.6328 9.39578 24.8777 9.64062 25.1797 9.64062Z" fill="#FF9C00"/>
<path d="M26.8203 9.64062C27.1223 9.64062 27.3672 9.39578 27.3672 9.09375C27.3672 8.79172 27.1223 8.54688 26.8203 8.54688C26.5183 8.54688 26.2734 8.79172 26.2734 9.09375C26.2734 9.39578 26.5183 9.64062 26.8203 9.64062Z" fill="#FF9C00"/>
<path d="M28.4609 9.64062C28.763 9.64062 29.0078 9.39578 29.0078 9.09375C29.0078 8.79172 28.763 8.54688 28.4609 8.54688C28.1589 8.54688 27.9141 8.79172 27.9141 9.09375C27.9141 9.39578 28.1589 9.64062 28.4609 9.64062Z" fill="#FF9C00"/>
<path d="M30.1016 9.64062C30.4036 9.64062 30.6484 9.39578 30.6484 9.09375C30.6484 8.79172 30.4036 8.54688 30.1016 8.54688C29.7995 8.54688 29.5547 8.79172 29.5547 9.09375C29.5547 9.39578 29.7995 9.64062 30.1016 9.64062Z" fill="#FF9C00"/>
<path d="M31.7422 9.64062C32.0442 9.64062 32.2891 9.39578 32.2891 9.09375C32.2891 8.79172 32.0442 8.54688 31.7422 8.54688C31.4402 8.54688 31.1953 8.79172 31.1953 9.09375C31.1953 9.39578 31.4402 9.64062 31.7422 9.64062Z" fill="#FF9C00"/>
<path d="M33.3828 9.64062C33.6848 9.64062 33.9297 9.39578 33.9297 9.09375C33.9297 8.79172 33.6848 8.54688 33.3828 8.54688C33.0808 8.54688 32.8359 8.79172 32.8359 9.09375C32.8359 9.39578 33.0808 9.64062 33.3828 9.64062Z" fill="#FF9C00"/>
<path d="M35.0234 9.64062C35.3255 9.64062 35.5703 9.39578 35.5703 9.09375C35.5703 8.79172 35.3255 8.54688 35.0234 8.54688C34.7214 8.54688 34.4766 8.79172 34.4766 9.09375C34.4766 9.39578 34.7214 9.64062 35.0234 9.64062Z" fill="#FF9C00"/>
<path d="M36.6641 9.64062C36.9661 9.64062 37.2109 9.39578 37.2109 9.09375C37.2109 8.79172 36.9661 8.54688 36.6641 8.54688C36.362 8.54688 36.1172 8.79172 36.1172 9.09375C36.1172 9.39578 36.362 9.64062 36.6641 9.64062Z" fill="#FF9C00"/>
<path d="M38.3047 9.64062C38.6067 9.64062 38.8516 9.39578 38.8516 9.09375C38.8516 8.79172 38.6067 8.54688 38.3047 8.54688C38.0027 8.54688 37.7578 8.79172 37.7578 9.09375C37.7578 9.39578 38.0027 9.64062 38.3047 9.64062Z" fill="#FF9C00"/>
<path d="M39.9453 9.64062C40.2473 9.64062 40.4922 9.39578 40.4922 9.09375C40.4922 8.79172 40.2473 8.54688 39.9453 8.54688C39.6433 8.54688 39.3984 8.79172 39.3984 9.09375C39.3984 9.39578 39.6433 9.64062 39.9453 9.64062Z" fill="#FF9C00"/>
<path d="M12.3281 19.4844C12.6302 19.4844 12.875 19.2395 12.875 18.9375C12.875 18.6355 12.6302 18.3906 12.3281 18.3906C12.0261 18.3906 11.7812 18.6355 11.7812 18.9375C11.7812 19.2395 12.0261 19.4844 12.3281 19.4844Z" fill="#FF9C00"/>
<path d="M13.9688 19.4844C14.2708 19.4844 14.5156 19.2395 14.5156 18.9375C14.5156 18.6355 14.2708 18.3906 13.9688 18.3906C13.6667 18.3906 13.4219 18.6355 13.4219 18.9375C13.4219 19.2395 13.6667 19.4844 13.9688 19.4844Z" fill="#FF9C00"/>
<path d="M15.6094 19.4844C15.9114 19.4844 16.1562 19.2395 16.1562 18.9375C16.1562 18.6355 15.9114 18.3906 15.6094 18.3906C15.3073 18.3906 15.0625 18.6355 15.0625 18.9375C15.0625 19.2395 15.3073 19.4844 15.6094 19.4844Z" fill="#FF9C00"/>
<path d="M17.25 19.4844C17.552 19.4844 17.7969 19.2395 17.7969 18.9375C17.7969 18.6355 17.552 18.3906 17.25 18.3906C16.948 18.3906 16.7031 18.6355 16.7031 18.9375C16.7031 19.2395 16.948 19.4844 17.25 19.4844Z" fill="#FF9C00"/>
<path d="M18.8906 19.4844C19.1927 19.4844 19.4375 19.2395 19.4375 18.9375C19.4375 18.6355 19.1927 18.3906 18.8906 18.3906C18.5886 18.3906 18.3438 18.6355 18.3438 18.9375C18.3438 19.2395 18.5886 19.4844 18.8906 19.4844Z" fill="#FF9C00"/>
<path d="M20.5312 19.4844C20.8333 19.4844 21.0781 19.2395 21.0781 18.9375C21.0781 18.6355 20.8333 18.3906 20.5312 18.3906C20.2292 18.3906 19.9844 18.6355 19.9844 18.9375C19.9844 19.2395 20.2292 19.4844 20.5312 19.4844Z" fill="#FF9C00"/>
<path d="M22.1719 19.4844C22.4739 19.4844 22.7188 19.2395 22.7188 18.9375C22.7188 18.6355 22.4739 18.3906 22.1719 18.3906C21.8698 18.3906 21.625 18.6355 21.625 18.9375C21.625 19.2395 21.8698 19.4844 22.1719 19.4844Z" fill="#FF9C00"/>
<path d="M23.8125 19.4844C24.1145 19.4844 24.3594 19.2395 24.3594 18.9375C24.3594 18.6355 24.1145 18.3906 23.8125 18.3906C23.5105 18.3906 23.2656 18.6355 23.2656 18.9375C23.2656 19.2395 23.5105 19.4844 23.8125 19.4844Z" fill="#FF9C00"/>
<path d="M25.4531 19.4844C25.7552 19.4844 26 19.2395 26 18.9375C26 18.6355 25.7552 18.3906 25.4531 18.3906C25.1511 18.3906 24.9062 18.6355 24.9062 18.9375C24.9062 19.2395 25.1511 19.4844 25.4531 19.4844Z" fill="#FF9C00"/>
<path d="M27.0938 19.4844C27.3958 19.4844 27.6406 19.2395 27.6406 18.9375C27.6406 18.6355 27.3958 18.3906 27.0938 18.3906C26.7917 18.3906 26.5469 18.6355 26.5469 18.9375C26.5469 19.2395 26.7917 19.4844 27.0938 19.4844Z" fill="#FF9C00"/>
<path d="M28.7344 19.4844C29.0364 19.4844 29.2812 19.2395 29.2812 18.9375C29.2812 18.6355 29.0364 18.3906 28.7344 18.3906C28.4323 18.3906 28.1875 18.6355 28.1875 18.9375C28.1875 19.2395 28.4323 19.4844 28.7344 19.4844Z" fill="#FF9C00"/>
<path d="M30.375 19.4844C30.677 19.4844 30.9219 19.2395 30.9219 18.9375C30.9219 18.6355 30.677 18.3906 30.375 18.3906C30.073 18.3906 29.8281 18.6355 29.8281 18.9375C29.8281 19.2395 30.073 19.4844 30.375 19.4844Z" fill="#FF9C00"/>
<path d="M32.0156 19.4844C32.3177 19.4844 32.5625 19.2395 32.5625 18.9375C32.5625 18.6355 32.3177 18.3906 32.0156 18.3906C31.7136 18.3906 31.4688 18.6355 31.4688 18.9375C31.4688 19.2395 31.7136 19.4844 32.0156 19.4844Z" fill="#FF9C00"/>
<path d="M33.6562 19.4844C33.9583 19.4844 34.2031 19.2395 34.2031 18.9375C34.2031 18.6355 33.9583 18.3906 33.6562 18.3906C33.3542 18.3906 33.1094 18.6355 33.1094 18.9375C33.1094 19.2395 33.3542 19.4844 33.6562 19.4844Z" fill="#FF9C00"/>
<path d="M35.2969 19.4844C35.5989 19.4844 35.8438 19.2395 35.8438 18.9375C35.8438 18.6355 35.5989 18.3906 35.2969 18.3906C34.9948 18.3906 34.75 18.6355 34.75 18.9375C34.75 19.2395 34.9948 19.4844 35.2969 19.4844Z" fill="#FF9C00"/>
<path d="M36.9375 19.4844C37.2395 19.4844 37.4844 19.2395 37.4844 18.9375C37.4844 18.6355 37.2395 18.3906 36.9375 18.3906C36.6355 18.3906 36.3906 18.6355 36.3906 18.9375C36.3906 19.2395 36.6355 19.4844 36.9375 19.4844Z" fill="#FF9C00"/>
<path d="M38.5781 19.4844C38.8802 19.4844 39.125 19.2395 39.125 18.9375C39.125 18.6355 38.8802 18.3906 38.5781 18.3906C38.2761 18.3906 38.0312 18.6355 38.0312 18.9375C38.0312 19.2395 38.2761 19.4844 38.5781 19.4844Z" fill="#FF9C00"/>
<path d="M40.2188 19.4844C40.5208 19.4844 40.7656 19.2395 40.7656 18.9375C40.7656 18.6355 40.5208 18.3906 40.2188 18.3906C39.9167 18.3906 39.6719 18.6355 39.6719 18.9375C39.6719 19.2395 39.9167 19.4844 40.2188 19.4844Z" fill="#FF9C00"/>
<path d="M40.7656 41.3594H11.2344C10.6542 41.3594 10.0978 41.1289 9.68758 40.7187C9.27734 40.3084 9.04688 39.752 9.04688 39.1719V40.2656C9.04688 40.8458 9.27734 41.4022 9.68758 41.8124C10.0978 42.2227 10.6542 42.4531 11.2344 42.4531H40.7656C41.3458 42.4531 41.9022 42.2227 42.3124 41.8124C42.7227 41.4022 42.9531 40.8458 42.9531 40.2656V39.1719C42.9531 39.752 42.7227 40.3084 42.3124 40.7187C41.9022 41.1289 41.3458 41.3594 40.7656 41.3594Z" fill="#A80132"/>
<path d="M40.7656 19.4844H11.2344C10.6542 19.4844 10.0978 19.7148 9.68758 20.1251C9.27734 20.5353 9.04688 21.0917 9.04688 21.6719V22.7656C9.04688 22.1855 9.27734 21.6291 9.68758 21.2188C10.0978 20.8086 10.6542 20.5781 11.2344 20.5781H40.7656C41.3458 20.5781 41.9022 20.8086 42.3124 21.2188C42.7227 21.6291 42.9531 22.1855 42.9531 22.7656V21.6719C42.9531 21.0917 42.7227 20.5353 42.3124 20.1251C41.9022 19.7148 41.3458 19.4844 40.7656 19.4844Z" fill="#FF014C"/>
<path d="M41.8594 23.3125C42.1614 23.3125 42.4062 23.0677 42.4062 22.7656C42.4062 22.4636 42.1614 22.2188 41.8594 22.2188C41.5573 22.2188 41.3125 22.4636 41.3125 22.7656C41.3125 23.0677 41.5573 23.3125 41.8594 23.3125Z" fill="#FF9C00"/>
<path d="M41.8594 24.9531C42.1614 24.9531 42.4062 24.7083 42.4062 24.4062C42.4062 24.1042 42.1614 23.8594 41.8594 23.8594C41.5573 23.8594 41.3125 24.1042 41.3125 24.4062C41.3125 24.7083 41.5573 24.9531 41.8594 24.9531Z" fill="#FF9C00"/>
<path d="M41.8594 26.5938C42.1614 26.5938 42.4062 26.3489 42.4062 26.0469C42.4062 25.7448 42.1614 25.5 41.8594 25.5C41.5573 25.5 41.3125 25.7448 41.3125 26.0469C41.3125 26.3489 41.5573 26.5938 41.8594 26.5938Z" fill="#FF9C00"/>
<path d="M41.8594 28.2344C42.1614 28.2344 42.4062 27.9895 42.4062 27.6875C42.4062 27.3855 42.1614 27.1406 41.8594 27.1406C41.5573 27.1406 41.3125 27.3855 41.3125 27.6875C41.3125 27.9895 41.5573 28.2344 41.8594 28.2344Z" fill="#FF9C00"/>
<path d="M41.8594 29.875C42.1614 29.875 42.4062 29.6302 42.4062 29.3281C42.4062 29.0261 42.1614 28.7812 41.8594 28.7812C41.5573 28.7812 41.3125 29.0261 41.3125 29.3281C41.3125 29.6302 41.5573 29.875 41.8594 29.875Z" fill="#FF9C00"/>
<path d="M41.8594 31.5156C42.1614 31.5156 42.4062 31.2708 42.4062 30.9688C42.4062 30.6667 42.1614 30.4219 41.8594 30.4219C41.5573 30.4219 41.3125 30.6667 41.3125 30.9688C41.3125 31.2708 41.5573 31.5156 41.8594 31.5156Z" fill="#FF9C00"/>
<path d="M41.8594 33.1562C42.1614 33.1562 42.4062 32.9114 42.4062 32.6094C42.4062 32.3073 42.1614 32.0625 41.8594 32.0625C41.5573 32.0625 41.3125 32.3073 41.3125 32.6094C41.3125 32.9114 41.5573 33.1562 41.8594 33.1562Z" fill="#FF9C00"/>
<path d="M41.8594 34.7969C42.1614 34.7969 42.4062 34.552 42.4062 34.25C42.4062 33.948 42.1614 33.7031 41.8594 33.7031C41.5573 33.7031 41.3125 33.948 41.3125 34.25C41.3125 34.552 41.5573 34.7969 41.8594 34.7969Z" fill="#FF9C00"/>
<path d="M41.8594 36.4375C42.1614 36.4375 42.4062 36.1927 42.4062 35.8906C42.4062 35.5886 42.1614 35.3438 41.8594 35.3438C41.5573 35.3438 41.3125 35.5886 41.3125 35.8906C41.3125 36.1927 41.5573 36.4375 41.8594 36.4375Z" fill="#FF9C00"/>
<path d="M41.8594 38.0781C42.1614 38.0781 42.4062 37.8333 42.4062 37.5312C42.4062 37.2292 42.1614 36.9844 41.8594 36.9844C41.5573 36.9844 41.3125 37.2292 41.3125 37.5312C41.3125 37.8333 41.5573 38.0781 41.8594 38.0781Z" fill="#FF9C00"/>
<path d="M41.8594 39.7188C42.1614 39.7188 42.4062 39.4739 42.4062 39.1719C42.4062 38.8698 42.1614 38.625 41.8594 38.625C41.5573 38.625 41.3125 38.8698 41.3125 39.1719C41.3125 39.4739 41.5573 39.7188 41.8594 39.7188Z" fill="#FF9C00"/>
<path d="M32.0156 23.3125C32.3177 23.3125 32.5625 23.0677 32.5625 22.7656C32.5625 22.4636 32.3177 22.2188 32.0156 22.2188C31.7136 22.2188 31.4688 22.4636 31.4688 22.7656C31.4688 23.0677 31.7136 23.3125 32.0156 23.3125Z" fill="#FF9C00"/>
<path d="M32.0156 24.9531C32.3177 24.9531 32.5625 24.7083 32.5625 24.4062C32.5625 24.1042 32.3177 23.8594 32.0156 23.8594C31.7136 23.8594 31.4688 24.1042 31.4688 24.4062C31.4688 24.7083 31.7136 24.9531 32.0156 24.9531Z" fill="#FF9C00"/>
<path d="M32.0156 26.5938C32.3177 26.5938 32.5625 26.3489 32.5625 26.0469C32.5625 25.7448 32.3177 25.5 32.0156 25.5C31.7136 25.5 31.4688 25.7448 31.4688 26.0469C31.4688 26.3489 31.7136 26.5938 32.0156 26.5938Z" fill="#FF9C00"/>
<path d="M32.0156 28.2344C32.3177 28.2344 32.5625 27.9895 32.5625 27.6875C32.5625 27.3855 32.3177 27.1406 32.0156 27.1406C31.7136 27.1406 31.4688 27.3855 31.4688 27.6875C31.4688 27.9895 31.7136 28.2344 32.0156 28.2344Z" fill="#FF9C00"/>
<path d="M32.0156 29.875C32.3177 29.875 32.5625 29.6302 32.5625 29.3281C32.5625 29.0261 32.3177 28.7812 32.0156 28.7812C31.7136 28.7812 31.4688 29.0261 31.4688 29.3281C31.4688 29.6302 31.7136 29.875 32.0156 29.875Z" fill="#FF9C00"/>
<path d="M32.0156 31.5156C32.3177 31.5156 32.5625 31.2708 32.5625 30.9688C32.5625 30.6667 32.3177 30.4219 32.0156 30.4219C31.7136 30.4219 31.4688 30.6667 31.4688 30.9688C31.4688 31.2708 31.7136 31.5156 32.0156 31.5156Z" fill="#FF9C00"/>
<path d="M32.0156 33.1562C32.3177 33.1562 32.5625 32.9114 32.5625 32.6094C32.5625 32.3073 32.3177 32.0625 32.0156 32.0625C31.7136 32.0625 31.4688 32.3073 31.4688 32.6094C31.4688 32.9114 31.7136 33.1562 32.0156 33.1562Z" fill="#FF9C00"/>
<path d="M32.0156 34.7969C32.3177 34.7969 32.5625 34.552 32.5625 34.25C32.5625 33.948 32.3177 33.7031 32.0156 33.7031C31.7136 33.7031 31.4688 33.948 31.4688 34.25C31.4688 34.552 31.7136 34.7969 32.0156 34.7969Z" fill="#FF9C00"/>
<path d="M32.0156 36.4375C32.3177 36.4375 32.5625 36.1927 32.5625 35.8906C32.5625 35.5886 32.3177 35.3438 32.0156 35.3438C31.7136 35.3438 31.4688 35.5886 31.4688 35.8906C31.4688 36.1927 31.7136 36.4375 32.0156 36.4375Z" fill="#FF9C00"/>
<path d="M32.0156 38.0781C32.3177 38.0781 32.5625 37.8333 32.5625 37.5312C32.5625 37.2292 32.3177 36.9844 32.0156 36.9844C31.7136 36.9844 31.4688 37.2292 31.4688 37.5312C31.4688 37.8333 31.7136 38.0781 32.0156 38.0781Z" fill="#FF9C00"/>
<path d="M32.0156 39.7188C32.3177 39.7188 32.5625 39.4739 32.5625 39.1719C32.5625 38.8698 32.3177 38.625 32.0156 38.625C31.7136 38.625 31.4688 38.8698 31.4688 39.1719C31.4688 39.4739 31.7136 39.7188 32.0156 39.7188Z" fill="#FF9C00"/>
<path d="M30.9219 23.3125C31.2239 23.3125 31.4688 23.0677 31.4688 22.7656C31.4688 22.4636 31.2239 22.2188 30.9219 22.2188C30.6198 22.2188 30.375 22.4636 30.375 22.7656C30.375 23.0677 30.6198 23.3125 30.9219 23.3125Z" fill="#FF9C00"/>
<path d="M30.9219 24.9531C31.2239 24.9531 31.4688 24.7083 31.4688 24.4062C31.4688 24.1042 31.2239 23.8594 30.9219 23.8594C30.6198 23.8594 30.375 24.1042 30.375 24.4062C30.375 24.7083 30.6198 24.9531 30.9219 24.9531Z" fill="#FF9C00"/>
<path d="M30.9219 26.5938C31.2239 26.5938 31.4688 26.3489 31.4688 26.0469C31.4688 25.7448 31.2239 25.5 30.9219 25.5C30.6198 25.5 30.375 25.7448 30.375 26.0469C30.375 26.3489 30.6198 26.5938 30.9219 26.5938Z" fill="#FF9C00"/>
<path d="M30.9219 28.2344C31.2239 28.2344 31.4688 27.9895 31.4688 27.6875C31.4688 27.3855 31.2239 27.1406 30.9219 27.1406C30.6198 27.1406 30.375 27.3855 30.375 27.6875C30.375 27.9895 30.6198 28.2344 30.9219 28.2344Z" fill="#FF9C00"/>
<path d="M30.9219 29.875C31.2239 29.875 31.4688 29.6302 31.4688 29.3281C31.4688 29.0261 31.2239 28.7812 30.9219 28.7812C30.6198 28.7812 30.375 29.0261 30.375 29.3281C30.375 29.6302 30.6198 29.875 30.9219 29.875Z" fill="#FF9C00"/>
<path d="M30.9219 31.5156C31.2239 31.5156 31.4688 31.2708 31.4688 30.9688C31.4688 30.6667 31.2239 30.4219 30.9219 30.4219C30.6198 30.4219 30.375 30.6667 30.375 30.9688C30.375 31.2708 30.6198 31.5156 30.9219 31.5156Z" fill="#FF9C00"/>
<path d="M30.9219 33.1562C31.2239 33.1562 31.4688 32.9114 31.4688 32.6094C31.4688 32.3073 31.2239 32.0625 30.9219 32.0625C30.6198 32.0625 30.375 32.3073 30.375 32.6094C30.375 32.9114 30.6198 33.1562 30.9219 33.1562Z" fill="#FF9C00"/>
<path d="M30.9219 34.7969C31.2239 34.7969 31.4688 34.552 31.4688 34.25C31.4688 33.948 31.2239 33.7031 30.9219 33.7031C30.6198 33.7031 30.375 33.948 30.375 34.25C30.375 34.552 30.6198 34.7969 30.9219 34.7969Z" fill="#FF9C00"/>
<path d="M30.9219 36.4375C31.2239 36.4375 31.4688 36.1927 31.4688 35.8906C31.4688 35.5886 31.2239 35.3438 30.9219 35.3438C30.6198 35.3438 30.375 35.5886 30.375 35.8906C30.375 36.1927 30.6198 36.4375 30.9219 36.4375Z" fill="#FF9C00"/>
<path d="M30.9219 38.0781C31.2239 38.0781 31.4688 37.8333 31.4688 37.5312C31.4688 37.2292 31.2239 36.9844 30.9219 36.9844C30.6198 36.9844 30.375 37.2292 30.375 37.5312C30.375 37.8333 30.6198 38.0781 30.9219 38.0781Z" fill="#FF9C00"/>
<path d="M30.9219 39.7188C31.2239 39.7188 31.4688 39.4739 31.4688 39.1719C31.4688 38.8698 31.2239 38.625 30.9219 38.625C30.6198 38.625 30.375 38.8698 30.375 39.1719C30.375 39.4739 30.6198 39.7188 30.9219 39.7188Z" fill="#FF9C00"/>
<path d="M21.0781 23.3125C21.3802 23.3125 21.625 23.0677 21.625 22.7656C21.625 22.4636 21.3802 22.2188 21.0781 22.2188C20.7761 22.2188 20.5312 22.4636 20.5312 22.7656C20.5312 23.0677 20.7761 23.3125 21.0781 23.3125Z" fill="#FF9C00"/>
<path d="M21.0781 24.9531C21.3802 24.9531 21.625 24.7083 21.625 24.4062C21.625 24.1042 21.3802 23.8594 21.0781 23.8594C20.7761 23.8594 20.5312 24.1042 20.5312 24.4062C20.5312 24.7083 20.7761 24.9531 21.0781 24.9531Z" fill="#FF9C00"/>
<path d="M21.0781 26.5938C21.3802 26.5938 21.625 26.3489 21.625 26.0469C21.625 25.7448 21.3802 25.5 21.0781 25.5C20.7761 25.5 20.5312 25.7448 20.5312 26.0469C20.5312 26.3489 20.7761 26.5938 21.0781 26.5938Z" fill="#FF9C00"/>
<path d="M21.0781 28.2344C21.3802 28.2344 21.625 27.9895 21.625 27.6875C21.625 27.3855 21.3802 27.1406 21.0781 27.1406C20.7761 27.1406 20.5312 27.3855 20.5312 27.6875C20.5312 27.9895 20.7761 28.2344 21.0781 28.2344Z" fill="#FF9C00"/>
<path d="M21.0781 29.875C21.3802 29.875 21.625 29.6302 21.625 29.3281C21.625 29.0261 21.3802 28.7812 21.0781 28.7812C20.7761 28.7812 20.5312 29.0261 20.5312 29.3281C20.5312 29.6302 20.7761 29.875 21.0781 29.875Z" fill="#FF9C00"/>
<path d="M21.0781 31.5156C21.3802 31.5156 21.625 31.2708 21.625 30.9688C21.625 30.6667 21.3802 30.4219 21.0781 30.4219C20.7761 30.4219 20.5312 30.6667 20.5312 30.9688C20.5312 31.2708 20.7761 31.5156 21.0781 31.5156Z" fill="#FF9C00"/>
<path d="M21.0781 33.1562C21.3802 33.1562 21.625 32.9114 21.625 32.6094C21.625 32.3073 21.3802 32.0625 21.0781 32.0625C20.7761 32.0625 20.5312 32.3073 20.5312 32.6094C20.5312 32.9114 20.7761 33.1562 21.0781 33.1562Z" fill="#FF9C00"/>
<path d="M21.0781 34.7969C21.3802 34.7969 21.625 34.552 21.625 34.25C21.625 33.948 21.3802 33.7031 21.0781 33.7031C20.7761 33.7031 20.5312 33.948 20.5312 34.25C20.5312 34.552 20.7761 34.7969 21.0781 34.7969Z" fill="#FF9C00"/>
<path d="M21.0781 36.4375C21.3802 36.4375 21.625 36.1927 21.625 35.8906C21.625 35.5886 21.3802 35.3438 21.0781 35.3438C20.7761 35.3438 20.5312 35.5886 20.5312 35.8906C20.5312 36.1927 20.7761 36.4375 21.0781 36.4375Z" fill="#FF9C00"/>
<path d="M21.0781 38.0781C21.3802 38.0781 21.625 37.8333 21.625 37.5312C21.625 37.2292 21.3802 36.9844 21.0781 36.9844C20.7761 36.9844 20.5312 37.2292 20.5312 37.5312C20.5312 37.8333 20.7761 38.0781 21.0781 38.0781Z" fill="#FF9C00"/>
<path d="M21.0781 39.7188C21.3802 39.7188 21.625 39.4739 21.625 39.1719C21.625 38.8698 21.3802 38.625 21.0781 38.625C20.7761 38.625 20.5312 38.8698 20.5312 39.1719C20.5312 39.4739 20.7761 39.7188 21.0781 39.7188Z" fill="#FF9C00"/>
<path d="M19.9844 23.3125C20.2864 23.3125 20.5312 23.0677 20.5312 22.7656C20.5312 22.4636 20.2864 22.2188 19.9844 22.2188C19.6823 22.2188 19.4375 22.4636 19.4375 22.7656C19.4375 23.0677 19.6823 23.3125 19.9844 23.3125Z" fill="#FF9C00"/>
<path d="M19.9844 24.9531C20.2864 24.9531 20.5312 24.7083 20.5312 24.4062C20.5312 24.1042 20.2864 23.8594 19.9844 23.8594C19.6823 23.8594 19.4375 24.1042 19.4375 24.4062C19.4375 24.7083 19.6823 24.9531 19.9844 24.9531Z" fill="#FF9C00"/>
<path d="M19.9844 26.5938C20.2864 26.5938 20.5312 26.3489 20.5312 26.0469C20.5312 25.7448 20.2864 25.5 19.9844 25.5C19.6823 25.5 19.4375 25.7448 19.4375 26.0469C19.4375 26.3489 19.6823 26.5938 19.9844 26.5938Z" fill="#FF9C00"/>
<path d="M19.9844 28.2344C20.2864 28.2344 20.5312 27.9895 20.5312 27.6875C20.5312 27.3855 20.2864 27.1406 19.9844 27.1406C19.6823 27.1406 19.4375 27.3855 19.4375 27.6875C19.4375 27.9895 19.6823 28.2344 19.9844 28.2344Z" fill="#FF9C00"/>
<path d="M19.9844 29.875C20.2864 29.875 20.5312 29.6302 20.5312 29.3281C20.5312 29.0261 20.2864 28.7812 19.9844 28.7812C19.6823 28.7812 19.4375 29.0261 19.4375 29.3281C19.4375 29.6302 19.6823 29.875 19.9844 29.875Z" fill="#FF9C00"/>
<path d="M19.9844 31.5156C20.2864 31.5156 20.5312 31.2708 20.5312 30.9688C20.5312 30.6667 20.2864 30.4219 19.9844 30.4219C19.6823 30.4219 19.4375 30.6667 19.4375 30.9688C19.4375 31.2708 19.6823 31.5156 19.9844 31.5156Z" fill="#FF9C00"/>
<path d="M19.9844 33.1562C20.2864 33.1562 20.5312 32.9114 20.5312 32.6094C20.5312 32.3073 20.2864 32.0625 19.9844 32.0625C19.6823 32.0625 19.4375 32.3073 19.4375 32.6094C19.4375 32.9114 19.6823 33.1562 19.9844 33.1562Z" fill="#FF9C00"/>
<path d="M19.9844 34.7969C20.2864 34.7969 20.5312 34.552 20.5312 34.25C20.5312 33.948 20.2864 33.7031 19.9844 33.7031C19.6823 33.7031 19.4375 33.948 19.4375 34.25C19.4375 34.552 19.6823 34.7969 19.9844 34.7969Z" fill="#FF9C00"/>
<path d="M19.9844 36.4375C20.2864 36.4375 20.5312 36.1927 20.5312 35.8906C20.5312 35.5886 20.2864 35.3438 19.9844 35.3438C19.6823 35.3438 19.4375 35.5886 19.4375 35.8906C19.4375 36.1927 19.6823 36.4375 19.9844 36.4375Z" fill="#FF9C00"/>
<path d="M19.9844 38.0781C20.2864 38.0781 20.5312 37.8333 20.5312 37.5312C20.5312 37.2292 20.2864 36.9844 19.9844 36.9844C19.6823 36.9844 19.4375 37.2292 19.4375 37.5312C19.4375 37.8333 19.6823 38.0781 19.9844 38.0781Z" fill="#FF9C00"/>
<path d="M19.9844 39.7188C20.2864 39.7188 20.5312 39.4739 20.5312 39.1719C20.5312 38.8698 20.2864 38.625 19.9844 38.625C19.6823 38.625 19.4375 38.8698 19.4375 39.1719C19.4375 39.4739 19.6823 39.7188 19.9844 39.7188Z" fill="#FF9C00"/>
<path d="M10.1406 23.3125C10.4427 23.3125 10.6875 23.0677 10.6875 22.7656C10.6875 22.4636 10.4427 22.2188 10.1406 22.2188C9.83859 22.2188 9.59375 22.4636 9.59375 22.7656C9.59375 23.0677 9.83859 23.3125 10.1406 23.3125Z" fill="#FF9C00"/>
<path d="M10.1406 24.9531C10.4427 24.9531 10.6875 24.7083 10.6875 24.4062C10.6875 24.1042 10.4427 23.8594 10.1406 23.8594C9.83859 23.8594 9.59375 24.1042 9.59375 24.4062C9.59375 24.7083 9.83859 24.9531 10.1406 24.9531Z" fill="#FF9C00"/>
<path d="M10.1406 26.5938C10.4427 26.5938 10.6875 26.3489 10.6875 26.0469C10.6875 25.7448 10.4427 25.5 10.1406 25.5C9.83859 25.5 9.59375 25.7448 9.59375 26.0469C9.59375 26.3489 9.83859 26.5938 10.1406 26.5938Z" fill="#FF9C00"/>
<path d="M10.1406 28.2344C10.4427 28.2344 10.6875 27.9895 10.6875 27.6875C10.6875 27.3855 10.4427 27.1406 10.1406 27.1406C9.83859 27.1406 9.59375 27.3855 9.59375 27.6875C9.59375 27.9895 9.83859 28.2344 10.1406 28.2344Z" fill="#FF9C00"/>
<path d="M10.1406 29.875C10.4427 29.875 10.6875 29.6302 10.6875 29.3281C10.6875 29.0261 10.4427 28.7812 10.1406 28.7812C9.83859 28.7812 9.59375 29.0261 9.59375 29.3281C9.59375 29.6302 9.83859 29.875 10.1406 29.875Z" fill="#FF9C00"/>
<path d="M10.1406 31.5156C10.4427 31.5156 10.6875 31.2708 10.6875 30.9688C10.6875 30.6667 10.4427 30.4219 10.1406 30.4219C9.83859 30.4219 9.59375 30.6667 9.59375 30.9688C9.59375 31.2708 9.83859 31.5156 10.1406 31.5156Z" fill="#FF9C00"/>
<path d="M10.1406 33.1562C10.4427 33.1562 10.6875 32.9114 10.6875 32.6094C10.6875 32.3073 10.4427 32.0625 10.1406 32.0625C9.83859 32.0625 9.59375 32.3073 9.59375 32.6094C9.59375 32.9114 9.83859 33.1562 10.1406 33.1562Z" fill="#FF9C00"/>
<path d="M10.1406 34.7969C10.4427 34.7969 10.6875 34.552 10.6875 34.25C10.6875 33.948 10.4427 33.7031 10.1406 33.7031C9.83859 33.7031 9.59375 33.948 9.59375 34.25C9.59375 34.552 9.83859 34.7969 10.1406 34.7969Z" fill="#FF9C00"/>
<path d="M10.1406 36.4375C10.4427 36.4375 10.6875 36.1927 10.6875 35.8906C10.6875 35.5886 10.4427 35.3438 10.1406 35.3438C9.83859 35.3438 9.59375 35.5886 9.59375 35.8906C9.59375 36.1927 9.83859 36.4375 10.1406 36.4375Z" fill="#FF9C00"/>
<path d="M10.1406 38.0781C10.4427 38.0781 10.6875 37.8333 10.6875 37.5312C10.6875 37.2292 10.4427 36.9844 10.1406 36.9844C9.83859 36.9844 9.59375 37.2292 9.59375 37.5312C9.59375 37.8333 9.83859 38.0781 10.1406 38.0781Z" fill="#FF9C00"/>
<path d="M10.1406 39.7188C10.4427 39.7188 10.6875 39.4739 10.6875 39.1719C10.6875 38.8698 10.4427 38.625 10.1406 38.625C9.83859 38.625 9.59375 38.8698 9.59375 39.1719C9.59375 39.4739 9.83859 39.7188 10.1406 39.7188Z" fill="#FF9C00"/>
<path d="M39.6719 26.0467H39.125C38.9779 26.0482 38.8372 26.1071 38.7329 26.2108C38.6677 26.2725 38.5858 26.3136 38.4974 26.329C38.4089 26.3443 38.318 26.3333 38.2358 26.2972C37.8246 26.1263 37.3828 26.041 36.9375 26.0467C36.5254 26.0432 36.1161 26.1153 35.73 26.2594C35.6789 26.1932 35.6133 26.1396 35.5382 26.1027C35.4631 26.0658 35.3805 26.0467 35.2969 26.0467H34.2031C34.0581 26.0467 33.919 26.1043 33.8164 26.2069C33.7139 26.3094 33.6562 26.4485 33.6562 26.5936V29.328C33.6562 29.473 33.7139 29.6121 33.8164 29.7147C33.919 29.8172 34.0581 29.8748 34.2031 29.8748H34.75C34.8543 29.8706 34.9555 29.8386 35.0432 29.782C35.1309 29.7255 35.2019 29.6465 35.2487 29.5533C35.3062 29.4511 35.3995 29.3738 35.5106 29.3364C35.6217 29.299 35.7428 29.3042 35.8503 29.3509C35.8744 29.3597 35.8979 29.3679 35.922 29.375C34.2255 30.9566 34.2031 34.1 34.2031 34.2498C34.2031 35.5476 35.6343 35.8905 36.3906 35.8905C37.147 35.8905 38.5781 35.5476 38.5781 34.2498C38.5882 33.7827 38.475 33.3212 38.25 32.9116C38.105 32.6671 38.0293 32.3877 38.0312 32.1034C38.6284 30.8575 39.3304 29.6647 40.1296 28.5377C40.1884 28.4475 40.2194 28.3419 40.2188 28.2342V26.5936C40.2188 26.4485 40.1611 26.3094 40.0586 26.2069C39.956 26.1043 39.8169 26.0467 39.6719 26.0467ZM39.6719 28.2342C39.6719 28.2342 37.4844 31.5155 37.4844 32.0623C37.4844 33.1561 38.0312 33.1561 38.0312 34.2498C38.0312 35.3436 36.3906 35.3436 36.3906 35.3436C36.3906 35.3436 34.75 35.3436 34.75 34.2498C34.75 34.2498 34.75 30.4217 36.9375 29.328L37.4844 28.7811C37.0216 28.9639 36.5104 28.9832 36.0352 28.8358C35.8022 28.743 35.5431 28.7397 35.3079 28.8266C35.0726 28.9134 34.8778 29.0842 34.7609 29.3061L34.75 29.328H34.2031V26.5936H35.2969V27.1405C35.7566 26.7602 36.3416 26.5652 36.9375 26.5936C37.3088 26.5886 37.6772 26.6593 38.0203 26.8014C38.203 26.88 38.4049 26.9028 38.6006 26.8668C38.7962 26.8308 38.9768 26.7376 39.1195 26.5991L39.125 26.5936H39.6719V28.2342Z" fill="#FF9C00"/>
<path d="M28.7344 26.0467H28.1875C28.0404 26.0482 27.8997 26.1071 27.7954 26.2108C27.7302 26.2725 27.6483 26.3136 27.5599 26.329C27.4714 26.3443 27.3805 26.3333 27.2983 26.2972C26.8871 26.1263 26.4453 26.041 26 26.0467C25.5879 26.0432 25.1786 26.1153 24.7925 26.2594C24.7414 26.1932 24.6758 26.1396 24.6007 26.1027C24.5256 26.0658 24.443 26.0467 24.3594 26.0467H23.2656C23.1206 26.0467 22.9815 26.1043 22.8789 26.2069C22.7764 26.3094 22.7188 26.4485 22.7188 26.5936V29.328C22.7188 29.473 22.7764 29.6121 22.8789 29.7147C22.9815 29.8172 23.1206 29.8748 23.2656 29.8748H23.8125C23.9168 29.8706 24.018 29.8386 24.1057 29.782C24.1934 29.7255 24.2644 29.6465 24.3113 29.5533C24.3687 29.4511 24.462 29.3738 24.5731 29.3364C24.6842 29.299 24.8053 29.3042 24.9128 29.3509C24.9369 29.3597 24.9604 29.3679 24.9845 29.375C23.288 30.9566 23.2656 34.1 23.2656 34.2498C23.2656 35.5476 24.6968 35.8905 25.4531 35.8905C26.2095 35.8905 27.6406 35.5476 27.6406 34.2498C27.6507 33.7827 27.5375 33.3212 27.3125 32.9116C27.1675 32.6671 27.0918 32.3877 27.0938 32.1034C27.6909 30.8575 28.3929 29.6647 29.1921 28.5377C29.2509 28.4475 29.2819 28.3419 29.2812 28.2342V26.5936C29.2812 26.4485 29.2236 26.3094 29.1211 26.2069C29.0185 26.1043 28.8794 26.0467 28.7344 26.0467ZM28.7344 28.2342C28.7344 28.2342 26.5469 31.5155 26.5469 32.0623C26.5469 33.1561 27.0938 33.1561 27.0938 34.2498C27.0938 35.3436 25.4531 35.3436 25.4531 35.3436C25.4531 35.3436 23.8125 35.3436 23.8125 34.2498C23.8125 34.2498 23.8125 30.4217 26 29.328L26.5469 28.7811C26.0841 28.9639 25.5729 28.9832 25.0977 28.8358C24.8647 28.743 24.6056 28.7397 24.3704 28.8266C24.1351 28.9134 23.9403 29.0842 23.8234 29.3061L23.8125 29.328H23.2656V26.5936H24.3594V27.1405C24.8191 26.7602 25.4041 26.5652 26 26.5936C26.3713 26.5886 26.7397 26.6593 27.0828 26.8014C27.2655 26.88 27.4674 26.9028 27.6631 26.8668C27.8587 26.8308 28.0393 26.7376 28.182 26.5991L28.1875 26.5936H28.7344V28.2342Z" fill="#FF9C00"/>
<path d="M17.7969 26.0467H17.25C17.1029 26.0482 16.9622 26.1071 16.8579 26.2108C16.7927 26.2725 16.7108 26.3136 16.6224 26.329C16.5339 26.3443 16.443 26.3333 16.3608 26.2972C15.9496 26.1263 15.5078 26.041 15.0625 26.0467C14.6504 26.0432 14.2411 26.1153 13.855 26.2594C13.8039 26.1932 13.7383 26.1396 13.6632 26.1027C13.5881 26.0658 13.5055 26.0467 13.4219 26.0467H12.3281C12.1831 26.0467 12.044 26.1043 11.9414 26.2069C11.8389 26.3094 11.7812 26.4485 11.7812 26.5936V29.328C11.7812 29.473 11.8389 29.6121 11.9414 29.7147C12.044 29.8172 12.1831 29.8748 12.3281 29.8748H12.875C12.9793 29.8706 13.0805 29.8386 13.1682 29.782C13.2559 29.7255 13.3269 29.6465 13.3737 29.5533C13.4312 29.4511 13.5245 29.3738 13.6356 29.3364C13.7467 29.299 13.8678 29.3042 13.9753 29.3509C13.9994 29.3597 14.0229 29.3679 14.047 29.375C12.3505 30.9566 12.3281 34.1 12.3281 34.2498C12.3281 35.5476 13.7593 35.8905 14.5156 35.8905C15.272 35.8905 16.7031 35.5476 16.7031 34.2498C16.7123 33.7824 16.5982 33.3209 16.3723 32.9116C16.2272 32.6671 16.1516 32.3877 16.1535 32.1034C16.7507 30.8575 17.4526 29.6647 18.2519 28.5377C18.3116 28.4478 18.3436 28.3422 18.3438 28.2342V26.5936C18.3438 26.4485 18.2861 26.3094 18.1836 26.2069C18.081 26.1043 17.9419 26.0467 17.7969 26.0467ZM17.7969 28.2342C17.7969 28.2342 15.6094 31.5155 15.6094 32.0623C15.6094 33.1561 16.1562 33.1561 16.1562 34.2498C16.1562 35.3436 14.5156 35.3436 14.5156 35.3436C14.5156 35.3436 12.875 35.3436 12.875 34.2498C12.875 34.2498 12.875 30.4217 15.0625 29.328L15.6094 28.7811C15.1466 28.9639 14.6354 28.9832 14.1602 28.8358C13.9272 28.743 13.6681 28.7397 13.4329 28.8266C13.1976 28.9134 13.0028 29.0842 12.8859 29.3061L12.875 29.328H12.3281V26.5936H13.4219V27.1405C13.8816 26.7602 14.4666 26.5652 15.0625 26.5936C15.4338 26.5886 15.8022 26.6593 16.1453 26.8014C16.328 26.88 16.5299 26.9028 16.7256 26.8668C16.9212 26.8308 17.1018 26.7376 17.2445 26.5991L17.25 26.5936H17.7969V28.2342Z" fill="#FF9C00"/>
<path d="M39.125 26.5939L39.1195 26.5994C38.9768 26.7379 38.7962 26.8311 38.6006 26.8671C38.4049 26.9031 38.203 26.8804 38.0203 26.8017C37.6772 26.6597 37.3088 26.589 36.9375 26.5939C36.3416 26.5656 35.7566 26.7606 35.2969 27.1408V26.5939H34.2031V27.6877H35.2969V28.2346C35.7566 27.8543 36.3416 27.6593 36.9375 27.6877C37.3088 27.6827 37.6772 27.7534 38.0203 27.8955C38.203 27.9741 38.4049 27.9969 38.6006 27.9609C38.7962 27.9249 38.9768 27.8317 39.1195 27.6931L39.125 27.6877H39.6719V26.5939H39.125Z" fill="#FF014C"/>
<path d="M36.3906 34.2499C36.3906 34.2499 35.0781 34.2499 34.8047 33.4597C34.75 33.9316 34.75 34.2499 34.75 34.2499C34.75 35.3436 36.3906 35.3436 36.3906 35.3436C36.3906 35.3436 38.0313 35.3436 38.0313 34.2499C38.0355 34.0184 38.0025 33.7878 37.9334 33.5668C37.5834 34.2499 36.3906 34.2499 36.3906 34.2499Z" fill="#A80132"/>
<path d="M28.1875 26.5939L28.182 26.5994C28.0393 26.7379 27.8587 26.8311 27.6631 26.8671C27.4674 26.9031 27.2655 26.8804 27.0828 26.8017C26.7397 26.6597 26.3713 26.589 26 26.5939C25.4041 26.5656 24.8191 26.7606 24.3594 27.1408V26.5939H23.2656V27.6877H24.3594V28.2346C24.8191 27.8543 25.4041 27.6593 26 27.6877C26.3713 27.6827 26.7397 27.7534 27.0828 27.8955C27.2655 27.9741 27.4674 27.9969 27.6631 27.9609C27.8587 27.9249 28.0393 27.8317 28.182 27.6931L28.1875 27.6877H28.7344V26.5939H28.1875Z" fill="#FF014C"/>
<path d="M25.4531 34.2499C25.4531 34.2499 24.1406 34.2499 23.8672 33.4597C23.8125 33.9316 23.8125 34.2499 23.8125 34.2499C23.8125 35.3436 25.4531 35.3436 25.4531 35.3436C25.4531 35.3436 27.0938 35.3436 27.0938 34.2499C27.098 34.0184 27.065 33.7878 26.9959 33.5668C26.6459 34.2499 25.4531 34.2499 25.4531 34.2499Z" fill="#A80132"/>
<path d="M17.25 26.5939L17.2445 26.5994C17.1018 26.7379 16.9212 26.8311 16.7256 26.8671C16.5299 26.9031 16.328 26.8804 16.1453 26.8017C15.8022 26.6597 15.4338 26.589 15.0625 26.5939C14.4666 26.5656 13.8816 26.7606 13.4219 27.1408V26.5939H12.3281V27.6877H13.4219V28.2346C13.8816 27.8543 14.4666 27.6593 15.0625 27.6877C15.4338 27.6827 15.8022 27.7534 16.1453 27.8955C16.328 27.9741 16.5299 27.9969 16.7256 27.9609C16.9212 27.9249 17.1018 27.8317 17.2445 27.6931L17.25 27.6877H17.7969V26.5939H17.25Z" fill="#FF014C"/>
<path d="M14.5156 34.2499C14.5156 34.2499 13.2031 34.2499 12.9297 33.4597C12.875 33.9316 12.875 34.2499 12.875 34.2499C12.875 35.3436 14.5156 35.3436 14.5156 35.3436C14.5156 35.3436 16.1563 35.3436 16.1563 34.2499C16.1605 34.0184 16.1275 33.7878 16.0584 33.5668C15.7084 34.2499 14.5156 34.2499 14.5156 34.2499Z" fill="#A80132"/>
<path d="M13.1484 15.3828V11.8281H12.6016V11.2812H12.0547V12.375H12.6016V15.9297C12.6004 16.0095 12.5875 16.0887 12.5633 16.1648C12.7318 16.1144 12.8796 16.0112 12.9849 15.8704C13.0903 15.7296 13.1476 15.5587 13.1484 15.3828Z" fill="#E3DECB"/>
<path d="M20.2578 14.0157C20.2571 13.2796 20.5047 12.5648 20.9606 11.9868C20.5247 12.3297 20.1831 12.7778 19.9678 13.2888C19.7525 13.7999 19.6705 14.3573 19.7295 14.9087L20.0735 16.0572C20.0992 16.1075 20.1282 16.1573 20.155 16.2059H20.8047V17.0044C21.4044 17.5462 22.1839 17.8463 22.9922 17.8466H23.5391V17.2969C22.6691 17.2961 21.835 16.9501 21.2198 16.3349C20.6047 15.7198 20.2587 14.8857 20.2578 14.0157Z" fill="#E3DECB"/>
<path d="M23.5391 12.375V11.8281C22.9576 11.8278 22.3996 12.0581 21.9876 12.4685C21.8976 12.5613 21.8158 12.6618 21.7432 12.7688C22.1095 12.513 22.5454 12.3756 22.9922 12.375H23.5391Z" fill="#E3DECB"/>
<path d="M27.3672 16.4658L25.7266 15.1533V16.1376L26.8203 17.0126V17.8439H27.9141V17.297H27.3672V16.4658Z" fill="#E3DECB"/>
<path d="M24.6328 11.2812H24.0859V11.8281V16.2031V17.2969V17.8438H25.1797V17.2969H24.6328V11.2812Z" fill="#E3DECB"/>
<path d="M27.3672 11.2812H26.8203V12.0031L27.3672 11.5656V11.2812Z" fill="#E3DECB"/>
<path d="M32.2891 12.6484C32.2891 12.4309 32.2026 12.2222 32.0488 12.0684C31.895 11.9146 31.6863 11.8281 31.4688 11.8281H30.1016V12.375H30.9219C31.1394 12.375 31.3481 12.4614 31.5019 12.6153C31.6558 12.7691 31.7422 12.9778 31.7422 13.1953C31.741 13.2753 31.7283 13.3547 31.7045 13.431C31.8744 13.3829 32.0237 13.2802 32.1294 13.1388C32.235 12.9973 32.2912 12.825 32.2891 12.6484Z" fill="#E3DECB"/>
<path d="M29.0078 14.0156V11.2812C28.8628 11.2812 28.7237 11.3389 28.6211 11.4414C28.5186 11.544 28.4609 11.6831 28.4609 11.8281V17.8438H29.5547V17.2969H29.0078V14.0156Z" fill="#E3DECB"/>
<path d="M30.1016 14.5626V15.1095H30.9219C31.2392 15.1106 31.5517 15.0324 31.8311 14.8819C32.1104 14.7315 32.3478 14.5136 32.5215 14.2481C32.2091 14.4541 31.8429 14.5635 31.4688 14.5626H30.1016Z" fill="#E3DECB"/>
<path d="M36.1174 11.8281C35.907 11.8286 35.7012 11.8897 35.5246 12.0041C35.3481 12.1186 35.2083 12.2815 35.1221 12.4734C35.2885 12.3986 35.4709 12.3667 35.6528 12.3804C35.8347 12.3941 36.0103 12.4531 36.1636 12.5521C36.3169 12.651 36.443 12.7867 36.5304 12.9468C36.6179 13.1069 36.6639 13.2863 36.6643 13.4688V15.6563C36.6637 15.811 36.6301 15.9639 36.5658 16.1047C36.7577 16.0184 36.9207 15.8786 37.0351 15.7021C37.1496 15.5256 37.2107 15.3198 37.2111 15.1094V12.9219C37.2111 12.6318 37.0959 12.3536 36.8908 12.1485C36.6857 11.9434 36.4075 11.8281 36.1174 11.8281Z" fill="#E3DECB"/>
<path d="M33.9297 15.1092V12.9217C33.9298 12.4756 34.0675 12.0404 34.324 11.6754C34.0339 11.876 33.7968 12.144 33.6329 12.4562C33.469 12.7685 33.3832 13.1159 33.3828 13.4686V15.6561C33.3823 16.1219 33.5307 16.5756 33.8063 16.9511C34.0819 17.3265 34.4703 17.6041 34.9148 17.7433C35.3593 17.8824 35.8366 17.8759 36.2771 17.7246C36.7176 17.5734 37.0983 17.2853 37.3635 16.9024C37.0361 17.1315 36.652 17.2663 36.2532 17.2921C35.8544 17.3179 35.4562 17.2338 35.1019 17.0488C34.7477 16.8638 34.4511 16.5851 34.2443 16.2431C34.0376 15.9011 33.9288 15.5088 33.9297 15.1092Z" fill="#E3DECB"/>
<path d="M39.3984 11.8281H38.3047V11.2812H37.7578V11.4907C37.9814 11.7446 38.1421 12.0475 38.227 12.375H38.8516V17.8438H39.9453V17.2969H39.3984V11.8281Z" fill="#E3DECB"/>
<path d="M40.4922 11.8281H41.0391V12.375H40.4922V11.8281Z" fill="#E3DECB"/>
<path d="M16.4042 11.2855C16.2914 11.2904 16.183 11.3301 16.0937 11.3991C16.0044 11.4682 15.9386 11.5631 15.9054 11.671L14.5459 16.203H14.9287L16.4042 11.2855Z" fill="#E3DECB"/>
<path d="M17.6634 11.8281H17.3834L17.168 12.5467L17.6087 14.0156H18.3197L17.6634 11.8281Z" fill="#E3DECB"/>
<path d="M14.2422 16.75H13.6953V17.8438H15.8828V17.2969H14.2422V16.75Z" fill="#E3DECB"/>
<path d="M18.6171 16.2031H18.9758L18.6477 15.1094H16.3989L16.2349 15.6562H18.1008L18.4289 16.75H18.0702V17.8438H20.2577V17.2969H18.6171V16.2031Z" fill="#E3DECB"/>
<path d="M12.3281 17.2969C12.0766 17.2974 11.8275 17.2482 11.595 17.1522C11.3626 17.0562 11.1514 16.9152 10.9736 16.7374C10.7957 16.5595 10.6547 16.3483 10.5587 16.1159C10.4627 15.8834 10.4136 15.6343 10.4141 15.3828V14.5625H10.1406V16.9059C10.3053 17.1851 10.5385 17.4178 10.8182 17.5818C11.0978 17.7458 11.4147 17.8357 11.7388 17.8431C12.063 17.8505 12.3836 17.7751 12.6705 17.624C12.9573 17.4729 13.2009 17.2512 13.3781 16.9797C13.067 17.1865 12.7017 17.2968 12.3281 17.2969Z" fill="#E3DECB"/>
</svg>
