<svg width="50" height="51" viewBox="0 0 50 51" fill="none" xmlns="http://www.w3.org/2000/svg">
<g clip-path="url(#clip0_6939_1490)">
<path d="M15.0391 38.9766L13.0879 39.9551L12.1094 41.9062L11.1309 39.9551L9.17969 38.9766L11.1309 37.998L12.1094 36.0469L13.0879 37.998L15.0391 38.9766Z" fill="#FF9C00"/>
<path d="M40.8203 12.0234L38.8691 13.002L37.8906 14.9531L36.9121 13.002L34.9609 12.0234L36.9121 11.0449L37.8906 9.09375L38.8691 11.0449L40.8203 12.0234Z" fill="#FF9C00"/>
<path d="M29.6875 39.5625C34.8652 39.5625 39.0625 35.3652 39.0625 30.1875C39.0625 25.0098 34.8652 20.8125 29.6875 20.8125C24.5098 20.8125 20.3125 25.0098 20.3125 30.1875C20.3125 35.3652 24.5098 39.5625 29.6875 39.5625Z" fill="#FFC052"/>
<path d="M39.0626 30.1875C39.0626 32.6739 38.0749 35.0585 36.3167 36.8166C34.5585 38.5748 32.174 39.5625 29.6876 39.5625C27.2012 39.5625 24.8166 38.5748 23.0584 36.8166C21.3003 35.0585 20.3126 32.6739 20.3126 30.1875C20.3113 29.894 20.325 29.6007 20.3536 29.3086C20.5717 31.6331 21.6494 33.7926 23.3758 35.3645C25.1021 36.9364 27.3528 37.8076 29.6876 37.8076C32.0223 37.8076 34.2731 36.9364 35.9994 35.3645C37.7257 33.7926 38.8034 31.6331 39.0216 29.3086C39.0501 29.6007 39.0638 29.894 39.0626 30.1875Z" fill="#F0A53B"/>
<path d="M39.2148 20.6602C40.4682 21.9098 41.4623 23.3948 42.14 25.0298C42.8178 26.6648 43.1658 28.4176 43.1641 30.1875H41.9922C41.9947 28.5716 41.677 26.9712 41.0575 25.4787C40.438 23.9863 39.5289 22.6313 38.3828 21.4922L39.2148 20.6602Z" fill="#FFAF3F"/>
<path d="M29.6875 42.4922C31.3034 42.4947 32.9038 42.177 34.3963 41.5575C35.8887 40.938 37.2437 40.0289 38.3828 38.8828L39.2148 39.7148C37.9652 40.9682 36.4802 41.9623 34.8452 42.64C33.2102 43.3178 31.4574 43.6658 29.6875 43.6641V42.4922Z" fill="#FFAF3F"/>
<path d="M20.9922 38.8828L20.1602 39.7148C18.5161 38.0748 17.3268 36.0354 16.709 33.7969C16.376 32.6227 16.2084 31.4079 16.211 30.1875H17.3828C17.3804 31.8034 17.698 33.4038 18.3175 34.8963C18.9371 36.3887 19.8461 37.7437 20.9922 38.8828Z" fill="#FFAF3F"/>
<path d="M29.6875 16.7111V17.8829C28.0716 17.8804 26.4712 18.1981 24.9787 18.8176C23.4863 19.4371 22.1313 20.3462 20.9922 21.4923L20.1602 20.6603C22.2988 18.5213 25.0957 17.1652 28.0996 16.8107C28.6261 16.7419 29.1566 16.7087 29.6875 16.7111Z" fill="#FFAF3F"/>
<path d="M20.9922 38.8828C22.1313 40.0289 23.4863 40.938 24.9787 41.5575C26.4712 42.177 28.0716 42.4947 29.6875 42.4922V43.6641C27.9176 43.6658 26.1648 43.3178 24.5298 42.64C22.8948 41.9623 21.4098 40.9682 20.1602 39.7148L20.9922 38.8828Z" fill="#F09413"/>
<path d="M20.9923 21.4922C19.8462 22.6313 18.9371 23.9863 18.3176 25.4787C17.6981 26.9712 17.3804 28.5716 17.3829 30.1875H16.2111C16.2087 29.6566 16.2419 29.1261 16.3107 28.5996C16.5442 26.5671 17.244 24.616 18.3556 22.8984C18.876 22.0904 19.481 21.3401 20.1603 20.6602L20.9923 21.4922Z" fill="#F09413"/>
<path d="M33.2969 17.209C35.5354 17.8267 37.5748 19.016 39.2148 20.6602L38.3828 21.4922C37.2437 20.3461 35.8887 19.437 34.3963 18.8175C32.9038 18.198 31.3034 17.8803 29.6875 17.8828V16.7109C30.0801 16.7109 30.4668 16.7285 30.8477 16.7637C31.6768 16.8305 32.4973 16.9797 33.2969 17.209Z" fill="#F09413"/>
<path d="M41.9922 30.1875H43.1641C43.1658 31.9574 42.8178 33.7102 42.14 35.3452C41.4623 36.9802 40.4682 38.4652 39.2148 39.7148L38.3828 38.8828C39.5289 37.7437 40.438 36.3887 41.0575 34.8963C41.677 33.4038 41.9947 31.8034 41.9922 30.1875Z" fill="#F09413"/>
<path d="M40.8203 30.1875H41.9922C41.9947 31.8034 41.677 33.4038 41.0575 34.8963C40.438 36.3887 39.5289 37.7437 38.3828 38.8828L37.5566 38.0566L36.4141 36.9141L36.3203 36.8203C37.191 35.9493 37.8813 34.9151 38.3519 33.777C38.8224 32.6388 39.0639 31.4191 39.0625 30.1875H40.8203Z" fill="#FFAF3F"/>
<path d="M22.9609 36.9141L23.0547 36.8203C23.9257 37.691 24.9599 38.3813 26.098 38.8519C27.2362 39.3224 28.4559 39.5639 29.6875 39.5625V42.4922C28.0716 42.4947 26.4712 42.177 24.9787 41.5575C23.4863 40.938 22.1313 40.0289 20.9922 38.8828L21.8184 38.0566L22.9609 36.9141Z" fill="#FFAF3F"/>
<path d="M22.961 23.4609L23.0547 23.5547C22.184 24.4257 21.4937 25.4599 21.0232 26.598C20.5526 27.7362 20.3111 28.9559 20.3125 30.1875H17.3828C17.3803 28.5716 17.698 26.9712 18.3175 25.4787C18.937 23.9863 19.8461 22.6313 20.9922 21.4922L21.8184 22.3184L22.961 23.4609Z" fill="#FFAF3F"/>
<path d="M36.4141 23.461L36.3203 23.5547C35.4493 22.684 34.4151 21.9937 33.277 21.5232C32.1388 21.0526 30.9191 20.8111 29.6875 20.8125V17.8828C31.3034 17.8803 32.9038 18.198 34.3963 18.8175C35.8887 19.437 37.2437 20.3461 38.3828 21.4922L37.5566 22.3184L36.4141 23.461Z" fill="#FFAF3F"/>
<path d="M23.0547 36.8203L22.961 36.9141L21.8184 38.0566L20.9922 38.8828C19.8461 37.7437 18.937 36.3887 18.3175 34.8963C17.698 33.4038 17.3803 31.8034 17.3828 30.1875H20.3125C20.3111 31.4191 20.5526 32.6388 21.0232 33.777C21.4937 34.9151 22.184 35.9493 23.0547 36.8203Z" fill="#FFCB52"/>
<path d="M29.6875 19.0547V20.8125C28.4559 20.8111 27.2362 21.0526 26.098 21.5232C24.9599 21.9937 23.9257 22.684 23.0547 23.5547L22.9609 23.461L21.8184 22.3184L20.9922 21.4922C22.1313 20.3461 23.4863 19.437 24.9787 18.8175C26.4712 18.198 28.0716 17.8803 29.6875 17.8828V19.0547Z" fill="#FFCB52"/>
<path d="M41.9922 30.1875H39.0625C39.0639 28.9559 38.8224 27.7362 38.3519 26.598C37.8813 25.4599 37.191 24.4257 36.3203 23.5547L36.4141 23.4609L37.5566 22.3184L38.3828 21.4922C39.5289 22.6313 40.438 23.9863 41.0575 25.4787C41.677 26.9712 41.9947 28.5716 41.9922 30.1875Z" fill="#FFCB52"/>
<path d="M37.5566 38.0566L38.3828 38.8828C37.2437 40.0289 35.8887 40.938 34.3963 41.5575C32.9038 42.177 31.3034 42.4947 29.6875 42.4922V39.5625C30.9191 39.5639 32.1388 39.3224 33.277 38.8519C34.4151 38.3813 35.4493 37.691 36.3203 36.8203L36.4141 36.9141L37.5566 38.0566Z" fill="#FFCB52"/>
<path d="M29.6875 20.8125C27.8333 20.8125 26.0207 21.3623 24.479 22.3925C22.9373 23.4226 21.7357 24.8868 21.0261 26.5998C20.3166 28.3129 20.1309 30.1979 20.4926 32.0165C20.8544 33.835 21.7473 35.5055 23.0584 36.8166C24.3695 38.1277 26.04 39.0206 27.8585 39.3824C29.6771 39.7441 31.5621 39.5584 33.2752 38.8489C34.9882 38.1393 36.4524 36.9377 37.4825 35.396C38.5127 33.8543 39.0625 32.0417 39.0625 30.1875C39.0625 27.7011 38.0748 25.3165 36.3166 23.5584C34.5585 21.8002 32.1739 20.8125 29.6875 20.8125ZM29.6875 38.9766C27.9492 38.9766 26.2499 38.4611 24.8046 37.4953C23.3592 36.5296 22.2327 35.1569 21.5675 33.5509C20.9022 31.9449 20.7282 30.1778 21.0673 28.4728C21.4064 26.7679 22.2435 25.2019 23.4727 23.9727C24.7019 22.7435 26.2679 21.9064 27.9728 21.5673C29.6778 21.2282 31.4449 21.4022 33.0509 22.0675C34.6569 22.7327 36.0296 23.8592 36.9953 25.3046C37.9611 26.7499 38.4766 28.4492 38.4766 30.1875C38.4766 32.5185 37.5506 34.754 35.9023 36.4023C34.254 38.0506 32.0185 38.9766 29.6875 38.9766Z" fill="#C97C10"/>
<path d="M30.2734 29.6016V27.2578H32.0312V26.0859H30.2734V24.9141H29.1016V26.0859C28.48 26.0859 27.8838 26.3329 27.4443 26.7724C27.0047 27.2119 26.7578 27.8081 26.7578 28.4297C26.7578 29.0513 27.0047 29.6474 27.4443 30.087C27.8838 30.5265 28.48 30.7734 29.1016 30.7734V33.1172H27.3438V34.2891H29.1016V35.4609H30.2734V34.2891C30.895 34.2891 31.4912 34.0421 31.9307 33.6026C32.3703 33.1631 32.6172 32.5669 32.6172 31.9453C32.6172 31.3237 32.3703 30.7276 31.9307 30.288C31.4912 29.8485 30.895 29.6016 30.2734 29.6016ZM28.2736 29.2576C28.11 29.0937 27.9986 28.8851 27.9535 28.6579C27.9084 28.4308 27.9317 28.1954 28.0202 27.9814C28.1088 27.7675 28.2588 27.5845 28.4512 27.4558C28.6437 27.327 28.87 27.2581 29.1016 27.2578V29.6016C28.9477 29.6018 28.7953 29.5716 28.6531 29.5125C28.511 29.4535 28.382 29.3668 28.2736 29.2576ZM31.1014 32.7732C30.993 32.8825 30.864 32.9691 30.7219 33.0281C30.5797 33.0872 30.4273 33.1174 30.2734 33.1172V30.7734C30.505 30.7737 30.7313 30.8426 30.9238 30.9714C31.1162 31.1002 31.2662 31.2831 31.3548 31.497C31.4433 31.711 31.4666 31.9464 31.4215 32.1735C31.3764 32.4007 31.265 32.6094 31.1014 32.7732Z" fill="#FFDF75"/>
<path d="M34.3792 30.22C34.244 31.1256 33.9249 31.9939 33.4417 32.7717C33.2849 32.9606 33.2033 33.2008 33.2126 33.4461C33.2635 33.6237 33.3772 33.7768 33.5326 33.8768C33.8336 34.0834 34.1783 34.2178 34.5398 34.2694C34.9013 34.321 35.2699 34.2885 35.6167 34.1744C36.3009 33.9456 36.8886 33.4937 37.2855 32.8912C37.645 32.3933 37.8529 31.8021 37.8841 31.1887C37.9153 30.5753 37.7684 29.966 37.4613 29.4342C37.2118 29.026 36.8359 28.7104 36.3908 28.5354C36.1452 28.4483 35.8843 28.4129 35.6244 28.4316C35.3646 28.4503 35.1114 28.5225 34.8808 28.6438C34.4378 28.9719 34.4496 29.7436 34.3792 30.22Z" fill="#FFDF75"/>
<path d="M26.2884 26.3422C25.6347 26.7746 25.0764 27.3361 24.6478 27.9922C24.5341 28.168 24.4134 28.3608 24.2065 28.4147C24.0472 28.4427 23.8831 28.415 23.7419 28.3362C23.4654 28.1953 23.2258 27.9914 23.0426 27.7409C22.8594 27.4904 22.7377 27.2004 22.6872 26.8942C22.5982 26.2967 22.7227 25.6869 23.0388 25.1721C23.3039 24.7108 23.6932 24.3332 24.1623 24.0823C24.6315 23.8315 25.1616 23.7173 25.6925 23.753C26.1079 23.7852 26.5028 23.9469 26.8216 24.2153C26.9849 24.3619 27.1149 24.5419 27.2027 24.743C27.2905 24.9442 27.3342 25.1618 27.3308 25.3813C27.2493 25.8336 26.6364 26.1125 26.2884 26.3422Z" fill="#FFDF75"/>
<path d="M37.9727 38.4738L38.3828 38.884C39.5288 37.7446 40.4378 36.3894 41.0571 34.8968C41.6764 33.4041 41.9938 31.8035 41.991 30.1875H41.4051C41.407 31.7267 41.1048 33.2511 40.5158 34.6732C39.9267 36.0952 39.0625 37.3869 37.9727 38.4738Z" fill="#FAD039"/>
<path d="M21.4023 38.4741L20.9922 38.8843C22.1316 40.0303 23.4867 40.9392 24.9794 41.5585C26.4721 42.1779 28.0726 42.4953 29.6887 42.4925V41.9065C28.1495 41.9085 26.625 41.6063 25.203 41.0172C23.7809 40.4282 22.4893 39.5639 21.4023 38.4741Z" fill="#FAD039"/>
<path d="M21.4012 21.9009L20.991 21.4907C19.845 22.6301 18.9361 23.9853 18.3168 25.4779C17.6975 26.9706 17.38 28.5712 17.3828 30.1872H17.9688C17.9668 28.648 18.269 27.1236 18.8581 25.7015C19.4471 24.2795 20.3114 22.9879 21.4012 21.9009Z" fill="#FAD039"/>
<path d="M37.9738 21.9012L38.384 21.491C37.2446 20.345 35.8894 19.4361 34.3968 18.8168C32.9041 18.1975 31.3035 17.88 29.6875 17.8828V18.4688C31.2267 18.4668 32.7511 18.769 34.1732 19.3581C35.5952 19.9471 36.8869 20.8114 37.9738 21.9012Z" fill="#FAD039"/>
<path d="M17.9688 30.1875H17.3828C17.3803 31.8034 17.698 33.4038 18.3175 34.8963C18.937 36.3887 19.8461 37.7437 20.9922 38.8828L21.4024 38.4727C20.3125 37.3859 19.4481 36.0945 18.8588 34.6727C18.2696 33.2509 17.9671 31.7266 17.9688 30.1875Z" fill="#FFDF75"/>
<path d="M29.6875 18.4688V17.8828C28.0716 17.8803 26.4712 18.198 24.9787 18.8175C23.4863 19.437 22.1313 20.3461 20.9922 21.4922L21.4023 21.9024C22.4891 20.8125 23.7805 19.9481 25.2023 19.3588C26.6241 18.7696 28.1484 18.4671 29.6875 18.4688Z" fill="#FFDF75"/>
<path d="M37.9727 21.9012C39.0625 22.9881 39.9267 24.2798 40.5158 25.7018C41.1048 27.1239 41.407 28.6483 41.4051 30.1875H41.991C41.9935 28.5716 41.6758 26.9712 41.0563 25.4787C40.4368 23.9863 39.5277 22.6313 38.3816 21.4922L37.9727 21.9012Z" fill="#FFDF75"/>
<path d="M29.6875 41.9048V42.4907C31.3034 42.4932 32.9038 42.1755 34.3963 41.556C35.8887 40.9365 37.2437 40.0275 38.3828 38.8813L37.9727 38.4712C36.8859 39.5611 35.5945 40.4255 34.1727 41.0147C32.7509 41.604 31.2266 41.9064 29.6875 41.9048Z" fill="#FFDF75"/>
<path d="M30.2705 34.7915C30.6752 34.6901 31.045 34.4814 31.341 34.1874C31.4385 34.0881 31.5272 33.9805 31.6059 33.8657C31.2149 34.1408 30.7485 34.2885 30.2705 34.2888V34.7915Z" fill="#F0A53B"/>
<path d="M29.0986 34.2891H27.3408V33.7031H26.7549V34.875H28.5127V36.0469H29.6846V35.4609H29.0986V34.2891Z" fill="#F0A53B"/>
<path d="M29.0984 30.7734C28.6702 30.7743 28.25 30.6575 27.8836 30.436C27.5172 30.2144 27.2186 29.8966 27.0204 29.517C26.8222 29.1374 26.732 28.7107 26.7597 28.2834C26.7873 27.8561 26.9317 27.4446 27.1771 27.0938C26.7685 27.3789 26.4615 27.7868 26.3005 28.2583C26.1395 28.7298 26.133 29.2404 26.2818 29.7158C26.4307 30.1913 26.7272 30.607 27.1283 30.9025C27.5294 31.198 28.0142 31.3581 28.5124 31.3594V33.1172H29.0984V30.7734Z" fill="#F0A53B"/>
<path d="M30.2705 27.2578H31.4424V27.8438H30.2705V27.2578Z" fill="#F0A53B"/>
<path d="M29.0986 25.5H28.5127V26.1691C28.7036 26.1164 28.9006 26.0884 29.0986 26.0859V25.5Z" fill="#F0A53B"/>
<path d="M31.4424 31.9453C31.4424 31.6345 31.3189 31.3364 31.0991 31.1167C30.8794 30.8969 30.5813 30.7734 30.2705 30.7734V31.5223C30.5224 31.6653 30.7115 31.8976 30.8004 32.1732C30.8894 32.4489 30.8718 32.7479 30.751 33.0111C30.8801 32.9533 30.9978 32.8727 31.0984 32.7732C31.2077 32.6649 31.2944 32.5359 31.3535 32.3938C31.4125 32.2517 31.4427 32.0992 31.4424 31.9453Z" fill="#F0A53B"/>
<path d="M28.0322 27.9492C28.1831 27.8803 28.3469 27.8443 28.5127 27.8438V29.4387C28.69 29.5441 28.8923 29.6003 29.0986 29.6016V27.2578C28.8732 27.2583 28.6527 27.3238 28.4636 27.4464C28.2744 27.569 28.1246 27.7436 28.0322 27.9492Z" fill="#F0A53B"/>
<path d="M29.2774 13.6699C29.1255 13.435 29.0626 13.1534 29.1002 12.8761C29.1379 12.5989 29.2734 12.3442 29.4825 12.1582L29.6875 11.9707L30.1211 11.584C28.4172 9.76177 26.2373 8.45265 23.8282 7.80469V8.74219C23.793 9.02013 23.651 9.27347 23.4323 9.44848C23.2135 9.6235 22.9352 9.70643 22.6563 9.67969H17.9688C17.6899 9.70643 17.4116 9.6235 17.1928 9.44848C16.974 9.27347 16.832 9.02013 16.7969 8.74219V7.80469C14.3899 8.45059 12.2119 9.75778 10.5098 11.5781L10.9434 11.9648L11.1543 12.1582C11.3619 12.3451 11.4964 12.5997 11.534 12.8765C11.5716 13.1533 11.5097 13.4344 11.3594 13.6699L9.21488 17.8008C8.91605 18.375 8.34769 18.6211 7.93754 18.3574L7.67973 18.2461L7.1348 18.0117C6.9339 18.9317 6.8337 19.8708 6.83598 20.8125C6.83466 21.7519 6.93287 22.6887 7.12894 23.6074L7.67973 23.373L7.93754 23.2617C8.34769 22.998 8.91605 23.25 9.21488 23.8184L11.3594 27.9551C11.5093 28.1907 11.571 28.4717 11.5335 28.7485C11.4959 29.0252 11.3616 29.2797 11.1543 29.4668L10.5039 30.0469C12.1899 31.8414 14.3363 33.1386 16.709 33.7969C16.6407 33.5793 16.584 33.3583 16.5391 33.1348C16.3194 32.1678 16.2094 31.1791 16.211 30.1875C16.211 29.877 16.2227 29.5664 16.2461 29.2617C16.2579 29.0508 16.2754 28.8398 16.3047 28.6348C15.0719 28.003 14.0058 27.0888 13.1935 25.9667C12.3812 24.8445 11.8456 23.5463 11.6305 22.1778C11.4153 20.8093 11.5267 19.4093 11.9556 18.0921C12.3844 16.7748 13.1185 15.5776 14.0981 14.5981C15.0776 13.6185 16.2749 12.8844 17.5921 12.4555C18.9094 12.0267 20.3093 11.9153 21.6778 12.1304C23.0463 12.3456 24.3446 12.8811 25.4667 13.6934C26.5888 14.5058 27.503 15.5718 28.1348 16.8047C28.3399 16.7754 28.5508 16.7578 28.7618 16.7461C29.0664 16.7227 29.377 16.7109 29.6875 16.7109C30.0867 16.7097 30.4857 16.7293 30.8829 16.7695L29.2774 13.6699Z" fill="#D1013E"/>
<path d="M20.3129 12.0234C18.3403 12.0234 16.4251 12.6868 14.8753 13.9071C13.3255 15.1274 12.2312 16.8336 11.7686 18.7511C11.306 20.6686 11.5018 22.6861 12.3246 24.4788C13.1475 26.2715 14.5495 27.7354 16.305 28.6348C16.322 28.4281 16.3514 28.2227 16.3929 28.0195C16.6818 26.194 17.3505 24.4494 18.3558 22.8984C17.671 21.9494 16.7211 21.2237 15.6254 20.8125C18.3031 20.0566 20.3129 15.5391 20.3129 15.5391C20.8667 16.7285 21.5632 17.846 22.3871 18.8672C23.9398 17.8547 25.6889 17.1818 27.5199 16.8926C27.723 16.851 27.9285 16.8217 28.1351 16.8047C27.3971 15.3654 26.2764 14.1576 24.8964 13.3141C23.5163 12.4705 21.9303 12.0239 20.3129 12.0234Z" fill="#FFFCED"/>
<path d="M22.3867 18.8672C20.7686 19.9052 19.3935 21.2803 18.3555 22.8984C17.6706 21.9494 16.7207 21.2237 15.625 20.8125C18.3027 20.0566 20.3125 15.5391 20.3125 15.5391C20.8664 16.7285 21.5629 17.846 22.3867 18.8672Z" fill="#D1013E"/>
<path d="M7.9375 23.2624C8.34766 22.9988 8.91602 23.2507 9.21484 23.8191L11.3594 27.9558C11.5093 28.1914 11.571 28.4725 11.5334 28.7492C11.4959 29.0259 11.3616 29.2804 11.1543 29.4675L10.5039 30.0476C8.80869 28.2519 7.64096 26.0239 7.12891 23.6081L7.9375 23.2624Z" fill="#F7F3E1"/>
<path d="M9.21484 17.8008C8.91602 18.375 8.34766 18.6211 7.9375 18.3574L7.13477 18.0117C7.64198 15.5959 8.81044 13.3686 10.5098 11.5781L11.1543 12.1582C11.3619 12.3451 11.4964 12.5997 11.534 12.8765C11.5715 13.1533 11.5096 13.4344 11.3594 13.6699L9.21484 17.8008Z" fill="#F7F3E1"/>
<path d="M23.8281 7.80469V8.74219C23.793 9.02013 23.651 9.27347 23.4322 9.44848C23.2135 9.6235 22.9351 9.70643 22.6562 9.67969H17.9688C17.6899 9.70643 17.4115 9.6235 17.1928 9.44848C16.974 9.27347 16.832 9.02013 16.7969 8.74219V7.80469C19.099 7.17969 21.526 7.17969 23.8281 7.80469Z" fill="#F7F3E1"/>
<path d="M33.2972 17.209C33.0816 17.1407 32.8625 17.084 32.6409 17.0391C32.0622 16.9071 31.4747 16.817 30.8831 16.7695L29.2776 13.6699C29.1257 13.435 29.0629 13.1534 29.1005 12.8761C29.1381 12.5989 29.2737 12.3442 29.4827 12.1582L29.6878 11.9707L30.1214 11.584C31.6234 13.1715 32.7138 15.1028 33.2972 17.209Z" fill="#F7F3E1"/>
<path d="M20.3109 11.4375C18.1862 11.4365 16.1241 12.1574 14.4627 13.4818C12.8013 14.8063 11.6391 16.6558 11.1665 18.7273C10.6939 20.7988 10.939 22.9694 11.8616 24.8833C12.7842 26.7973 14.3296 28.3411 16.2445 29.2617C16.2562 29.0508 16.2738 28.8398 16.3031 28.6348C15.0702 28.003 14.0041 27.0888 13.1918 25.9667C12.3795 24.8445 11.8439 23.5463 11.6288 22.1778C11.4137 20.8093 11.5251 19.4093 11.9539 18.0921C12.3827 16.7748 13.1169 15.5776 14.0964 14.5981C15.076 13.6185 16.2732 12.8844 17.5905 12.4555C18.9077 12.0267 20.3077 11.9153 21.6762 12.1304C23.0446 12.3456 24.3429 12.8811 25.465 13.6935C26.5872 14.5058 27.5014 15.5718 28.1331 16.8047C28.3382 16.7754 28.5492 16.7578 28.7601 16.7461C27.9944 15.1555 26.7952 13.8134 25.3004 12.8743C23.8057 11.9352 22.0762 11.4371 20.3109 11.4375Z" fill="#A80132"/>
<path d="M20.3129 12.0234C18.3403 12.0234 16.4251 12.6868 14.8753 13.9071C13.3255 15.1274 12.2312 16.8336 11.7686 18.7511C11.306 20.6686 11.5018 22.6861 12.3246 24.4788C13.1475 26.2715 14.5495 27.7354 16.305 28.6348C16.322 28.4281 16.3514 28.2227 16.3929 28.0195C15.2726 27.4096 14.3099 26.5468 13.5814 25.4997C12.8529 24.4525 12.3787 23.2499 12.1964 21.9874C12.014 20.7249 12.1287 19.4373 12.5311 18.2268C12.9336 17.0163 13.6128 15.9164 14.5148 15.0144C15.4168 14.1124 16.5167 13.4332 17.7272 13.0308C18.9376 12.6283 20.2253 12.5137 21.4878 12.696C22.7503 12.8783 23.9529 13.3526 25 14.0811C26.0471 14.8096 26.91 15.7722 27.5199 16.8926C27.723 16.851 27.9285 16.8217 28.1351 16.8047C27.3971 15.3654 26.2764 14.1576 24.8964 13.3141C23.5163 12.4705 21.9303 12.0239 20.3129 12.0234Z" fill="#E3DECB"/>
<path d="M11.1543 29.4675L10.5039 30.0476C8.80869 28.2519 7.64096 26.0239 7.12891 23.6081L7.9375 23.2624C8.34766 22.9988 8.91602 23.2507 9.21484 23.8191L11.3594 27.9558C11.5093 28.1914 11.571 28.4725 11.5334 28.7492C11.4959 29.0259 11.3616 29.2804 11.1543 29.4675Z" fill="#E3DECB"/>
<path d="M7.42191 20.8131C7.42165 19.951 7.50743 19.0911 7.67797 18.2461L7.1348 18.0117C6.93386 18.9319 6.83366 19.8712 6.83598 20.8131C6.83466 21.7525 6.93287 22.6893 7.12895 23.608L7.67738 23.3736C7.50736 22.5307 7.42178 21.673 7.42191 20.8131Z" fill="#8F0029"/>
<path d="M16.7969 8.41113V7.80469C14.3899 8.45059 12.2119 9.75778 10.5098 11.5781L10.941 11.9666C12.5363 10.2747 14.5598 9.04607 16.7969 8.41113Z" fill="#8F0029"/>
<path d="M16.709 33.7969C14.3363 33.1386 12.1899 31.8414 10.5039 30.0469L10.9375 29.6602C12.4724 31.2838 14.4025 32.4811 16.5391 33.1348C16.584 33.3583 16.6407 33.5793 16.709 33.7969Z" fill="#8F0029"/>
<path d="M29.6875 11.9719L30.1193 11.584C28.4158 9.76204 26.2367 8.45295 23.8281 7.80469V8.41113C26.067 9.04695 28.0919 10.2774 29.6875 11.9719Z" fill="#8F0029"/>
<path d="M7.67734 23.373L7.12891 23.6074C7.64096 26.0232 8.80869 28.2512 10.5039 30.0469L10.9404 29.6578C9.28558 27.9099 8.15495 25.7322 7.67734 23.373Z" fill="#C7C3B2"/>
<path d="M10.941 11.9648L10.5098 11.5781C8.81044 13.3686 7.64198 15.5959 7.13477 18.0117L7.67793 18.2461C8.15631 15.8882 9.28688 13.7119 10.941 11.9648Z" fill="#E3DECB"/>
<path d="M20.3125 7.92188C21.5013 7.92207 22.6844 8.08671 23.8281 8.41113V7.80469C21.526 7.17969 19.099 7.17969 16.7969 7.80469V8.41113C17.9406 8.08671 19.1237 7.92207 20.3125 7.92188Z" fill="#E3DECB"/>
<path d="M33.2969 17.209C33.0813 17.1407 32.8622 17.084 32.6406 17.0391C32.0608 15.1443 31.05 13.4095 29.6875 11.9707L30.1211 11.584C31.6232 13.1715 32.7135 15.1028 33.2969 17.209Z" fill="#E3DECB"/>
<path d="M9.17969 21.3984C9.50329 21.3984 9.76562 21.1361 9.76562 20.8125C9.76562 20.4889 9.50329 20.2266 9.17969 20.2266C8.85608 20.2266 8.59375 20.4889 8.59375 20.8125C8.59375 21.1361 8.85608 21.3984 9.17969 21.3984Z" fill="#FFFCED"/>
<path d="M14.4531 30.7734C14.7767 30.7734 15.0391 30.5111 15.0391 30.1875C15.0391 29.8639 14.7767 29.6016 14.4531 29.6016C14.1295 29.6016 13.8672 29.8639 13.8672 30.1875C13.8672 30.5111 14.1295 30.7734 14.4531 30.7734Z" fill="#FFFCED"/>
<path d="M14.4531 12.0234C14.7767 12.0234 15.0391 11.7611 15.0391 11.4375C15.0391 11.1139 14.7767 10.8516 14.4531 10.8516C14.1295 10.8516 13.8672 11.1139 13.8672 11.4375C13.8672 11.7611 14.1295 12.0234 14.4531 12.0234Z" fill="#FFFCED"/>
<path d="M26.1719 12.0234C26.4955 12.0234 26.7578 11.7611 26.7578 11.4375C26.7578 11.1139 26.4955 10.8516 26.1719 10.8516C25.8483 10.8516 25.5859 11.1139 25.5859 11.4375C25.5859 11.7611 25.8483 12.0234 26.1719 12.0234Z" fill="#FFFCED"/>
<path d="M28.0939 16.7344C28.1097 16.7565 28.1234 16.78 28.1349 16.8047C28.2579 16.7871 28.381 16.7754 28.5099 16.7637C28.3751 16.752 28.2345 16.7402 28.0939 16.7344ZM16.211 30.1875C16.211 29.877 16.2228 29.5664 16.2462 29.2617C16.2579 29.0508 16.2755 28.8398 16.3048 28.6348C15.5415 28.2392 14.839 27.7361 14.2189 27.1406C14.1593 27.364 14.1143 27.5911 14.0841 27.8203C13.9375 28.6008 13.8649 29.3934 13.8673 30.1875C13.8647 30.8111 13.9097 31.434 14.0021 32.0508C14.0314 32.2969 14.0724 32.543 14.1192 32.7832H14.1251C14.9499 33.2078 15.8156 33.5474 16.7091 33.7969C16.6408 33.5793 16.5841 33.3583 16.5392 33.1348C16.3195 32.1678 16.2094 31.1791 16.211 30.1875Z" fill="#8F0029"/>
<path d="M28.0937 16.7344C27.8711 16.7168 27.6426 16.7109 27.4141 16.7109H27.3437C25.3929 16.7086 23.4651 17.1325 21.6953 17.9531C21.9062 18.2578 22.1406 18.5684 22.3867 18.8672C23.9394 17.8547 25.6886 17.1818 27.5195 16.8926C27.7227 16.851 27.9281 16.8217 28.1348 16.8047C28.1233 16.78 28.1096 16.7565 28.0937 16.7344ZM17.0078 21.5508C15.7967 22.9923 14.9042 24.6736 14.3887 26.4844C14.3242 26.7012 14.2656 26.918 14.2188 27.1406C14.8389 27.7361 15.5414 28.2393 16.3047 28.6348C16.3217 28.4281 16.351 28.2227 16.3926 28.0195C16.6814 26.194 17.3501 24.4494 18.3555 22.8984C17.959 22.3994 17.5068 21.9473 17.0078 21.5508Z" fill="#E3DECB"/>
<path d="M22.3867 18.8672C20.7686 19.9052 19.3935 21.2803 18.3555 22.8984C17.959 22.3994 17.5068 21.9473 17.0078 21.5508C18.282 20.0165 19.8837 18.7872 21.6953 17.9531C21.9062 18.2578 22.1406 18.5684 22.3867 18.8672Z" fill="#A80132"/>
<path d="M28.0938 16.7344C28.1096 16.7565 28.1233 16.78 28.1348 16.8047C28.2578 16.7871 28.3809 16.7754 28.5098 16.7637C28.375 16.752 28.2344 16.7402 28.0938 16.7344ZM14.084 27.8203C14.736 28.3966 15.4634 28.8815 16.2461 29.2617C16.2578 29.0508 16.2754 28.8398 16.3047 28.6348C15.5414 28.2392 14.8389 27.7361 14.2188 27.1406C14.1592 27.364 14.1142 27.5911 14.084 27.8203Z" fill="#8F0029"/>
<path d="M28.0937 16.7344C27.8711 16.7168 27.6426 16.7109 27.4141 16.7109C27.4492 16.7695 27.4844 16.8281 27.5195 16.8926C27.7227 16.851 27.9281 16.8217 28.1348 16.8047C28.1233 16.78 28.1096 16.7565 28.0937 16.7344ZM14.2188 27.1406C14.8389 27.7361 15.5414 28.2392 16.3047 28.6348C16.3217 28.4281 16.351 28.2227 16.3926 28.0195C15.6501 27.6132 14.9743 27.0955 14.3887 26.4844C14.3242 26.7012 14.2656 26.918 14.2188 27.1406Z" fill="#E3DECB"/>
<path d="M16.709 33.7969C15.8155 33.5474 14.9497 33.2078 14.125 32.7832H14.1191C14.0723 32.543 14.0312 32.2969 14.002 32.0508C14.8062 32.5023 15.6568 32.8657 16.5391 33.1348C16.584 33.3583 16.6407 33.5793 16.709 33.7969Z" fill="#8F0029"/>
<path d="M14.4531 30.7734C14.7767 30.7734 15.0391 30.5111 15.0391 30.1875C15.0391 29.8639 14.7767 29.6016 14.4531 29.6016C14.1295 29.6016 13.8672 29.8639 13.8672 30.1875C13.8672 30.5111 14.1295 30.7734 14.4531 30.7734Z" fill="#E3DECB"/>
</g>
<defs>
<clipPath id="clip0_6939_1490">
<rect width="37.5" height="37.5" fill="white" transform="translate(6.25 6.75)"/>
</clipPath>
</defs>
</svg>
