<svg width="50" height="51" viewBox="0 0 50 51" fill="none" xmlns="http://www.w3.org/2000/svg">
<path d="M35.5469 43.6641H14.4531L15.625 41.9063H19.873L19.1641 39.0762C22.9233 40.5059 27.0767 40.5059 30.8359 39.0762L30.127 41.9063H33.7891L35.5469 43.6641Z" fill="#614E4A"/>
<path d="M29.6875 43.0781H20.3125H14.8439L14.4531 43.6641H20.3125H29.6875H35.5469L34.9609 43.0781H29.6875Z" fill="#3B2F2D"/>
<path d="M39.063 23.7425C39.0648 25.5993 38.6963 27.4379 37.979 29.1507L33.6548 27.346C34.1286 26.2101 34.3735 24.9919 34.3755 23.7612C34.3775 22.5305 34.1366 21.3115 33.6665 20.1741L38.0024 18.387L38.0142 18.3811C38.7071 20.0836 39.0633 21.9043 39.063 23.7425Z" fill="#FFC608"/>
<path d="M38.0137 18.3808L38.002 18.3867L33.666 20.1738C32.7382 17.9112 30.9607 16.1022 28.7148 15.1347L30.5664 10.8515L30.6074 10.7519C33.9689 12.2427 36.623 14.9766 38.0137 18.3808Z" fill="#D1013E"/>
<path d="M33.6543 27.3459L37.9785 29.1506C36.5779 32.5178 33.9216 35.2077 30.5723 36.6506L30.5664 36.633L28.7148 32.3498C30.9478 31.3852 32.7188 29.5911 33.6543 27.3459Z" fill="#D1013E"/>
<path d="M30.8359 39.0763C27.5655 40.3211 23.9827 40.4875 20.6109 39.5514C17.2391 38.6152 14.255 36.6255 12.0944 33.8728C9.93382 31.1201 8.70997 27.7487 8.60162 24.2511C8.49327 20.7534 9.5061 17.3128 11.4922 14.4316C13.4782 11.5505 16.3335 9.37989 19.6409 8.23682C22.9483 7.09376 26.5345 7.03814 29.8757 8.07809C33.2169 9.11804 36.1381 11.1991 38.2126 14.0172C40.2871 16.8354 41.4061 20.243 41.4063 23.7423C41.4136 27.0701 40.4056 30.3209 38.5169 33.0608C36.6282 35.8007 33.9486 37.8992 30.8359 39.0763ZM37.9785 29.1505C38.6958 27.4378 39.0643 25.5992 39.0625 23.7423C39.0636 20.9906 38.265 18.2979 36.764 15.9916C35.2629 13.6854 33.124 11.8651 30.6074 10.7521C29.361 10.2027 28.04 9.84139 26.6875 9.67981L25 11.9298L23.3125 9.67981C21.96 9.84139 20.639 10.2027 19.3926 10.7521C16.8767 11.8661 14.7385 13.6866 13.2376 15.9926C11.7366 18.2986 10.9376 20.9909 10.9375 23.7423C10.9389 26.9922 12.0658 30.1413 14.1267 32.6542C16.1877 35.1671 19.0553 36.8885 22.2421 37.5259C25.4289 38.1632 28.7381 37.6771 31.607 36.1502C34.4758 34.6233 36.7273 32.1499 37.9785 29.1505Z" fill="#F0EBD7"/>
<path d="M30.5132 40.363L30.8354 39.0739C27.0762 40.5036 22.9229 40.5036 19.1636 39.0739L19.4858 40.363C23.0508 41.6395 26.9482 41.6395 30.5132 40.363Z" fill="#3B2F2D"/>
<path d="M33.6665 20.1742C34.1366 21.3116 34.3775 22.5306 34.3755 23.7613C34.3735 24.992 34.1286 26.2102 33.6548 27.346L26.6235 24.4164C26.7125 24.2039 26.7583 23.9758 26.7583 23.7455C26.7583 23.5151 26.7125 23.287 26.6235 23.0746L33.6665 20.1742Z" fill="#F7F3E1"/>
<path d="M33.666 20.1739L26.623 23.0743C26.5386 22.8637 26.4133 22.672 26.2544 22.5101C26.0955 22.3482 25.9062 22.2193 25.6973 22.1309L28.7148 15.1348C30.9607 16.1023 32.7382 17.9113 33.666 20.1739Z" fill="#D9D4C2"/>
<path d="M26.623 24.4162L33.6543 27.3459C32.7188 29.5911 30.9478 31.3852 28.7148 32.3498L25.6973 25.3537C26.1164 25.174 26.4486 24.8375 26.623 24.4162Z" fill="#D9D4C2"/>
<path d="M30.6074 10.752L30.5664 10.8516L28.7148 15.1348C27.5418 14.6285 26.2776 14.3674 25 14.3674C23.7224 14.3674 22.4582 14.6285 21.2852 15.1348L19.4336 10.8516L19.3926 10.752C20.639 10.2026 21.96 9.84126 23.3125 9.67969L25 11.9297L26.6875 9.67969C28.04 9.84126 29.361 10.2026 30.6074 10.752Z" fill="#FFC608"/>
<path d="M30.5669 36.6327L30.5728 36.6503C28.8137 37.4118 26.9173 37.8046 25.0005 37.8046C23.0837 37.8046 21.1873 37.4118 19.4282 36.6503L19.4341 36.6327L21.2856 32.3495C22.4587 32.8558 23.7229 33.1169 25.0005 33.1169C26.2781 33.1169 27.5423 32.8558 28.7153 32.3495L30.5669 36.6327Z" fill="#FFC608"/>
<path d="M25.6973 25.3535L28.7148 32.3496C27.5418 32.8559 26.2776 33.117 25 33.117C23.7224 33.117 22.4582 32.8559 21.2852 32.3496L24.3027 25.3535C24.5225 25.4501 24.7599 25.5 25 25.5C25.2401 25.5 25.4775 25.4501 25.6973 25.3535Z" fill="#F7F3E1"/>
<path d="M28.7148 15.1351L25.6973 22.1312C25.4775 22.0345 25.2401 21.9847 25 21.9847C24.7599 21.9847 24.5225 22.0345 24.3027 22.1312L21.2852 15.1351C22.4582 14.6288 23.7224 14.3676 25 14.3676C26.2776 14.3676 27.5418 14.6288 28.7148 15.1351Z" fill="#F7F3E1"/>
<path d="M26.623 23.0745C26.712 23.287 26.7578 23.515 26.7578 23.7454C26.7578 23.9757 26.712 24.2038 26.623 24.4163C26.4486 24.8376 26.1164 25.1741 25.6973 25.3538C25.4833 25.4464 25.2529 25.4955 25.0197 25.4981C24.7866 25.5007 24.5552 25.4568 24.3392 25.369C24.1231 25.2812 23.9268 25.1511 23.7616 24.9866C23.5964 24.822 23.4656 24.6261 23.377 24.4104C23.288 24.1979 23.2422 23.9699 23.2422 23.7395C23.2422 23.5092 23.288 23.2811 23.377 23.0686C23.5514 22.6473 23.8836 22.3108 24.3027 22.1311C24.5167 22.0385 24.7471 21.9894 24.9803 21.9868C25.2134 21.9842 25.4448 22.0281 25.6608 22.1159C25.8769 22.2037 26.0732 22.3338 26.2384 22.4983C26.4037 22.6629 26.5344 22.8588 26.623 23.0745Z" fill="#3B2F2D"/>
<path d="M24.3032 25.3535L21.2856 32.3496C19.0397 31.3821 17.2623 29.5731 16.3345 27.3105L23.3774 24.4102C23.4619 24.6207 23.5872 24.8124 23.7461 24.9743C23.905 25.1362 24.0943 25.2651 24.3032 25.3535Z" fill="#D9D4C2"/>
<path d="M21.2847 15.1348L24.3022 22.1309C23.8831 22.3106 23.5509 22.6471 23.3765 23.0684L16.3452 20.1387C17.2808 17.8935 19.0518 16.0994 21.2847 15.1348Z" fill="#D9D4C2"/>
<path d="M16.3457 20.1389L23.377 23.0686C23.288 23.2811 23.2422 23.5092 23.2422 23.7395C23.2422 23.9699 23.288 24.1979 23.377 24.4104L16.334 27.3108C15.8639 26.1734 15.623 24.9544 15.625 23.7237C15.627 22.493 15.8719 21.2748 16.3457 20.1389Z" fill="#F7F3E1"/>
<path d="M19.4341 10.8515L21.2856 15.1347C19.0527 16.0993 17.2817 17.8934 16.3462 20.1386L12.022 18.3339L12.0103 18.3281C13.4048 14.9469 16.049 12.2333 19.3931 10.7519L19.4341 10.8515Z" fill="#D1013E"/>
<path d="M21.2852 32.3497L19.4336 36.6329L19.4277 36.6505C16.0621 35.1965 13.3965 32.4868 11.998 29.0977L16.334 27.3106C17.2618 29.5732 19.0393 31.3822 21.2852 32.3497Z" fill="#D1013E"/>
<path d="M12.0215 18.3341L16.3457 20.1388C15.8719 21.2747 15.627 22.4929 15.625 23.7236C15.623 24.9543 15.8639 26.1733 16.334 27.3107L11.9981 29.0978C11.2952 27.4 10.9347 25.5799 10.9375 23.7423C10.9359 21.8847 11.3002 20.045 12.0098 18.3283L12.0215 18.3341Z" fill="#FFC608"/>
<path d="M33.2031 16.125C33.5267 16.125 33.7891 15.8627 33.7891 15.5391C33.7891 15.2155 33.5267 14.9531 33.2031 14.9531C32.8795 14.9531 32.6172 15.2155 32.6172 15.5391C32.6172 15.8627 32.8795 16.125 33.2031 16.125Z" fill="#F0EBD7"/>
<path d="M36.7188 24.3281C37.0424 24.3281 37.3047 24.0658 37.3047 23.7422C37.3047 23.4186 37.0424 23.1562 36.7188 23.1562C36.3951 23.1562 36.1328 23.4186 36.1328 23.7422C36.1328 24.0658 36.3951 24.3281 36.7188 24.3281Z" fill="#D1013E"/>
<path d="M25 36.0469C25.3236 36.0469 25.5859 35.7845 25.5859 35.4609C25.5859 35.1373 25.3236 34.875 25 34.875C24.6764 34.875 24.4141 35.1373 24.4141 35.4609C24.4141 35.7845 24.6764 36.0469 25 36.0469Z" fill="#D1013E"/>
<path d="M13.2812 24.3281C13.6049 24.3281 13.8672 24.0658 13.8672 23.7422C13.8672 23.4186 13.6049 23.1562 13.2812 23.1562C12.9576 23.1562 12.6953 23.4186 12.6953 23.7422C12.6953 24.0658 12.9576 24.3281 13.2812 24.3281Z" fill="#D1013E"/>
<path d="M16.7969 16.125C17.1205 16.125 17.3828 15.8627 17.3828 15.5391C17.3828 15.2155 17.1205 14.9531 16.7969 14.9531C16.4733 14.9531 16.2109 15.2155 16.2109 15.5391C16.2109 15.8627 16.4733 16.125 16.7969 16.125Z" fill="#F0EBD7"/>
<path d="M33.2031 32.5312C33.5267 32.5312 33.7891 32.2689 33.7891 31.9453C33.7891 31.6217 33.5267 31.3594 33.2031 31.3594C32.8795 31.3594 32.6172 31.6217 32.6172 31.9453C32.6172 32.2689 32.8795 32.5312 33.2031 32.5312Z" fill="#F0EBD7"/>
<path d="M16.7969 32.5312C17.1205 32.5312 17.3828 32.2689 17.3828 31.9453C17.3828 31.6217 17.1205 31.3594 16.7969 31.3594C16.4733 31.3594 16.2109 31.6217 16.2109 31.9453C16.2109 32.2689 16.4733 32.5312 16.7969 32.5312Z" fill="#F0EBD7"/>
<path d="M37.583 13.2194C37.1764 13.2551 36.7838 13.3852 36.4364 13.5995C36.089 13.8137 35.7964 14.1061 35.582 14.4534C37.8341 17.0229 39.0716 20.3256 39.0625 23.7423C39.0646 26.8925 38.0032 29.9511 36.0502 32.4229C36.5325 32.8679 37.1641 33.1157 37.8203 33.1173H38.4062C38.4262 33.1173 38.4449 33.112 38.4648 33.1114C40.5221 30.159 41.5507 26.6117 41.3919 23.0167C41.233 19.4217 39.8956 15.9789 37.5859 13.2194H37.583Z" fill="#D9D4C2"/>
<path d="M12.3319 33.1174C12.9455 33.1151 13.5388 32.8969 14.0077 32.501C12.4392 30.5324 11.4267 28.1796 11.0753 25.6872C10.724 23.1949 11.0466 20.6539 12.0096 18.3284C12.6171 16.8719 13.4627 15.5266 14.5116 14.3475C14.2785 14.0075 13.9687 13.727 13.6073 13.5286C13.2459 13.3302 12.8429 13.2196 12.4309 13.2055C10.1172 15.9614 8.77483 19.4021 8.6108 22.9967C8.44676 26.5913 9.47024 30.14 11.5233 33.0952C11.5977 33.1016 11.6692 33.1174 11.7448 33.1174H12.3319Z" fill="#D9D4C2"/>
<path d="M25 9.09326C22.1028 9.09326 19.2707 9.95238 16.8618 11.562C14.4528 13.1716 12.5753 15.4593 11.4666 18.136C10.3579 20.8126 10.0678 23.7579 10.633 26.5995C11.1982 29.441 12.5934 32.0511 14.642 34.0997C16.6906 36.1483 19.3007 37.5435 22.1422 38.1087C24.9838 38.6739 27.9291 38.3838 30.6057 37.2751C33.2824 36.1664 35.5701 34.2889 37.1797 31.8799C38.7893 29.471 39.6484 26.6389 39.6484 23.7417C39.6484 21.818 39.2696 19.9132 38.5334 18.136C37.7972 16.3588 36.7183 14.7439 35.358 13.3837C33.9978 12.0235 32.383 10.9445 30.6057 10.2083C28.8285 9.47215 26.9237 9.09326 25 9.09326ZM30.5723 36.6499C28.8132 37.4114 26.9168 37.8042 25 37.8042C23.0832 37.8042 21.1868 37.4114 19.4277 36.6499C16.9112 35.5494 14.7696 33.74 13.2644 31.4424C11.7593 29.1449 10.9558 26.4588 10.9521 23.7122C10.9484 20.9655 11.7446 18.2772 13.2434 15.9756C14.7423 13.674 16.879 11.8588 19.3926 10.7515C20.639 10.2021 21.96 9.84077 23.3125 9.6792L25 11.9292L26.6875 9.6792C28.04 9.84077 29.361 10.2021 30.6074 10.7515C33.124 11.8645 35.2629 13.6848 36.764 15.991C38.265 18.2973 39.0636 20.99 39.0625 23.7417C39.0611 26.487 38.2566 29.1719 36.7479 31.4656C35.2393 33.7592 33.0926 35.5614 30.5723 36.6499Z" fill="#7D0126"/>
<path d="M38.085 28.8771L26.7354 24.145C26.7265 24.1429 26.7175 24.1413 26.7084 24.1404C26.688 24.2345 26.6593 24.3266 26.6229 24.4157C26.5844 24.5043 26.5387 24.5895 26.4863 24.6706C26.494 24.6764 26.502 24.6817 26.5104 24.6864L37.8529 29.4155C37.8922 29.3259 37.9408 29.2398 37.9783 29.1501C38.0158 29.0605 38.0492 28.9679 38.085 28.8771Z" fill="#7D0126"/>
<path d="M23.2645 23.3388C23.2732 23.3423 23.2826 23.3388 23.2914 23.344C23.3118 23.2497 23.3405 23.1574 23.377 23.0681C23.4154 22.9795 23.4611 22.8943 23.5135 22.8132C23.5058 22.8074 23.4978 22.8021 23.4895 22.7974L12.134 18.0636C12.0953 18.1526 12.0473 18.2393 12.0098 18.3278C11.9723 18.4163 11.94 18.5101 11.9043 18.6009L11.909 18.6038L23.2645 23.3388Z" fill="#7D0126"/>
<path d="M24.5716 25.4691C24.5742 25.46 24.5761 25.4508 24.5774 25.4415C24.3892 25.3995 24.2103 25.3228 24.0501 25.2154C24.0444 25.2221 24.0393 25.2294 24.0349 25.237L19.1646 36.5152V36.5193C19.2542 36.5603 19.3403 36.6101 19.4288 36.6488C19.5173 36.6874 19.6046 36.7202 19.6954 36.7566C19.6954 36.7531 19.7019 36.7513 19.7036 36.7472L24.5716 25.4691Z" fill="#7D0126"/>
<path d="M25.4287 22.0146C25.4261 22.0236 25.4242 22.0328 25.4229 22.0421C25.5169 22.0634 25.6089 22.093 25.6977 22.1306C25.7852 22.1688 25.8693 22.2144 25.949 22.2671C25.9537 22.2589 25.9631 22.2554 25.9666 22.2466L30.8357 10.9685C30.8473 10.9391 30.8539 10.908 30.8551 10.8765C30.7713 10.8378 30.6928 10.7898 30.6078 10.7529C30.5229 10.716 30.4391 10.6872 30.3559 10.6527C30.3316 10.677 30.3117 10.7053 30.2973 10.7365L25.4287 22.0146Z" fill="#7D0126"/>
<path d="M23.5105 24.6653C23.4589 24.5841 23.4142 24.4986 23.377 24.4099C23.3405 24.3205 23.3119 24.2282 23.2914 24.1339C23.2826 24.1339 23.2738 24.1339 23.2656 24.1392L11.8926 28.8267C11.9277 28.9175 11.9605 29.0095 11.998 29.0997C12.0355 29.1899 12.0836 29.2755 12.1229 29.3645L23.49 24.6829C23.4973 24.6775 23.5041 24.6717 23.5105 24.6653Z" fill="#7D0126"/>
<path d="M26.4897 22.8181C26.5414 22.8993 26.5861 22.9848 26.6233 23.0736C26.66 23.1628 26.6886 23.2552 26.7089 23.3495C26.7176 23.3484 26.7262 23.3466 26.7347 23.3443L38.1142 18.6568H38.1183C38.0831 18.5654 38.0509 18.4728 38.014 18.3825C37.9771 18.2923 37.929 18.2068 37.8903 18.1183L26.512 22.8058C26.5043 22.8094 26.4969 22.8135 26.4897 22.8181Z" fill="#7D0126"/>
<path d="M24.0336 22.2462C24.0377 22.255 24.0471 22.2591 24.0512 22.2673C24.1309 22.2145 24.215 22.1687 24.3025 22.1302C24.3913 22.0926 24.4833 22.063 24.5773 22.0417C24.576 22.0324 24.5741 22.0232 24.5715 22.0142L19.7023 10.7337C19.6879 10.7025 19.668 10.6742 19.6437 10.6499C19.5605 10.6845 19.4744 10.7138 19.3918 10.7501C19.3092 10.7864 19.2283 10.8351 19.1445 10.8737C19.1458 10.9053 19.1523 10.9364 19.1639 10.9657L24.0336 22.2462Z" fill="#7D0126"/>
<path d="M25.9666 25.2371C25.9631 25.2284 25.9555 25.2231 25.9514 25.2149C25.8708 25.2679 25.7859 25.3142 25.6977 25.3532C25.6088 25.3905 25.5168 25.4201 25.4229 25.4416C25.4242 25.4509 25.4261 25.4601 25.4287 25.4692L30.2979 36.7485C30.2979 36.7526 30.3037 36.7543 30.3061 36.7578C30.3945 36.7215 30.4818 36.6881 30.5727 36.65C30.6635 36.6119 30.7484 36.5616 30.8369 36.5211V36.5164L25.9666 25.2371Z" fill="#7D0126"/>
</svg>
