<svg width="25" height="24" viewBox="0 0 25 24" fill="none" xmlns="http://www.w3.org/2000/svg">
<g clip-path="url(#clip0_6939_820)">
<path d="M6.20579 2.32006L5.21666 1.33594L2.90698 3.63389L3.96446 4.68612C4.58132 3.78403 5.339 2.98516 6.20579 2.32006Z" fill="#C7FFEE"/>
<path d="M12.5004 20.9058C18.3024 20.9058 23.0058 16.2259 23.0058 10.4529C23.0058 4.67993 18.3024 0 12.5004 0C6.69843 0 1.995 4.67993 1.995 10.4529C1.995 16.2259 6.69843 20.9058 12.5004 20.9058Z" fill="#6ECAD5"/>
<path opacity="0.1" d="M2.59238 10.4531C2.59238 4.77968 7.13527 0.162345 12.799 0.00494132C12.6998 0.00217575 12.6002 0.000488281 12.5002 0.000488281C6.69831 0.000488281 1.99487 4.68026 1.99487 10.4531C1.99487 16.226 6.69831 20.9058 12.5003 20.9058C12.6002 20.9058 12.6998 20.9041 12.7991 20.9014C7.13527 20.744 2.59238 16.1266 2.59238 10.4531Z" fill="black"/>
<path d="M12.5004 19.6801C17.622 19.6801 21.7739 15.549 21.7739 10.4529C21.7739 5.35691 17.622 1.22577 12.5004 1.22577C7.37873 1.22577 3.22681 5.35691 3.22681 10.4529C3.22681 15.549 7.37873 19.6801 12.5004 19.6801Z" fill="#3C3F44"/>
<path d="M11.9408 19.8329C12.8986 19.8329 13.6751 19.0564 13.6751 18.0985C13.6751 17.1407 12.8986 16.3642 11.9408 16.3642C10.9829 16.3642 10.2064 17.1407 10.2064 18.0985C10.2064 19.0564 10.9829 19.8329 11.9408 19.8329Z" fill="#89C947"/>
<path d="M16.2185 8.07501C17.1763 8.07501 17.9528 7.29851 17.9528 6.34066C17.9528 5.38281 17.1763 4.60632 16.2185 4.60632C15.2606 4.60632 14.4841 5.38281 14.4841 6.34066C14.4841 7.29851 15.2606 8.07501 16.2185 8.07501Z" fill="#60A041"/>
<path d="M5.60336 15.2134C6.56121 15.2134 7.3377 14.4369 7.3377 13.4791C7.3377 12.5212 6.56121 11.7448 5.60336 11.7448C4.64551 11.7448 3.86902 12.5212 3.86902 13.4791C3.86902 14.4369 4.64551 15.2134 5.60336 15.2134Z" fill="#EE3835"/>
<path d="M7.91147 18.3301C8.86932 18.3301 9.64581 17.5536 9.64581 16.5958C9.64581 15.6379 8.86932 14.8615 7.91147 14.8615C6.95361 14.8615 6.17712 15.6379 6.17712 16.5958C6.17712 17.5536 6.95361 18.3301 7.91147 18.3301Z" fill="#0481BF"/>
<path d="M17.8586 17.8384C18.8165 17.8384 19.5929 17.0619 19.5929 16.104C19.5929 15.1462 18.8165 14.3697 17.8586 14.3697C16.9008 14.3697 16.1243 15.1462 16.1243 16.104C16.1243 17.0619 16.9008 17.8384 17.8586 17.8384Z" fill="#F7931E"/>
<path d="M19.6722 15.4324C20.6301 15.4324 21.4065 14.6559 21.4065 13.698C21.4065 12.7402 20.6301 11.9637 19.6722 11.9637C18.7144 11.9637 17.9379 12.7402 17.9379 13.698C17.9379 14.6559 18.7144 15.4324 19.6722 15.4324Z" fill="#EE3835"/>
<path d="M8.68063 15.4324C9.63848 15.4324 10.415 14.6559 10.415 13.698C10.415 12.7402 9.63848 11.9637 8.68063 11.9637C7.72278 11.9637 6.94629 12.7402 6.94629 13.698C6.94629 14.6559 7.72278 15.4324 8.68063 15.4324Z" fill="#FECF05"/>
<path d="M16.8123 15.0002C17.7702 15.0002 18.5467 14.2237 18.5467 13.2658C18.5467 12.308 17.7702 11.5315 16.8123 11.5315C15.8545 11.5315 15.078 12.308 15.078 13.2658C15.078 14.2237 15.8545 15.0002 16.8123 15.0002Z" fill="#FECF05"/>
<path d="M14.3888 8.9248L19.2313 4.10657C19.0696 3.93683 18.9016 3.77315 18.7275 3.61603L13.8691 8.44992C14.0647 8.58248 14.2397 8.74265 14.3888 8.9248Z" fill="#D0D5D5"/>
<path d="M14.387 8.95963L14.3706 8.93962C14.2224 8.75864 14.0493 8.60039 13.856 8.46933L13.8324 8.45335L13.8526 8.43329L18.7267 3.58374L18.7432 3.5986C18.916 3.7545 19.086 3.91997 19.2483 4.09036L19.2641 4.10695L14.387 8.95963ZM13.9057 8.4466C14.0863 8.57213 14.2491 8.72109 14.3904 8.89007L19.1985 4.10615C19.047 3.94786 18.8889 3.79402 18.7282 3.64833L13.9057 8.4466Z" fill="#D0D5D5"/>
<path d="M11.1315 8.44995L6.27314 3.61597C6.099 3.77309 5.931 3.93677 5.76929 4.1065L10.6118 8.92479C10.761 8.74268 10.936 8.58246 11.1315 8.44995Z" fill="#D0D5D5"/>
<path d="M10.6138 8.95963L5.73657 4.10695L5.75242 4.09036C5.91469 3.91997 6.08466 3.7545 6.25753 3.5986L6.27403 3.58374L11.1683 8.45344L11.1448 8.46943C10.9515 8.60035 10.7784 8.75859 10.6301 8.93967L10.6138 8.95963ZM5.8022 4.1061L10.6103 8.89007C10.7517 8.72105 10.9146 8.57203 11.095 8.44664L6.27244 3.64829C6.11175 3.79397 5.95374 3.94781 5.8022 4.1061Z" fill="#D0D5D5"/>
<path d="M10.4871 11.815L5.62866 16.649C5.78658 16.8222 5.95111 16.9894 6.12168 17.1503L10.9643 12.332C10.7812 12.1837 10.6202 12.0095 10.4871 11.815Z" fill="#D0D5D5"/>
<path d="M6.12207 17.1829L6.10553 17.1673C5.93443 17.006 5.76813 16.8369 5.61128 16.6648L5.59619 16.6482L5.61208 16.6323L10.4905 11.7786L10.5063 11.8018C10.638 11.9941 10.797 12.1664 10.979 12.3138L10.9992 12.3303L6.12207 17.1829ZM5.66106 16.6498C5.80759 16.8097 5.96223 16.967 6.12123 17.1176L10.9293 12.3336C10.7595 12.1931 10.6098 12.031 10.4838 11.8513L5.66106 16.6498Z" fill="#D0D5D5"/>
<path d="M14.5136 11.8151C14.3804 12.0096 14.2195 12.1837 14.0364 12.332L18.879 17.1503C19.0496 16.9894 19.2141 16.8222 19.372 16.649L14.5136 11.8151Z" fill="#D0D5D5"/>
<path d="M18.8785 17.1829L14.0013 12.3303L14.0216 12.3138C14.2036 12.1664 14.3626 11.9941 14.4943 11.8018L14.5102 11.7786L19.4044 16.6482L19.3893 16.6648C19.2331 16.8363 19.0668 17.0054 18.895 17.1674L18.8785 17.1829ZM14.0713 12.3337L18.8793 17.1177C19.0388 16.9664 19.1934 16.8092 19.3395 16.6498L14.5169 11.8514C14.3909 12.0311 14.2411 12.1932 14.0713 12.3337Z" fill="#D0D5D5"/>
<path d="M19.1617 10.8303C20.1196 10.8303 20.8961 10.0538 20.8961 9.09591C20.8961 8.13806 20.1196 7.36157 19.1617 7.36157C18.2039 7.36157 17.4274 8.13806 17.4274 9.09591C17.4274 10.0538 18.2039 10.8303 19.1617 10.8303Z" fill="#0481BF"/>
<path d="M5.16366 9.85479C6.12151 9.85479 6.898 9.0783 6.898 8.12045C6.898 7.1626 6.12151 6.38611 5.16366 6.38611C4.20581 6.38611 3.42932 7.1626 3.42932 8.12045C3.42932 9.0783 4.20581 9.85479 5.16366 9.85479Z" fill="#F7931E"/>
<path d="M15.0311 17.4845C15.9889 17.4845 16.7654 16.708 16.7654 15.7501C16.7654 14.7923 15.9889 14.0158 15.0311 14.0158C14.0732 14.0158 13.2968 14.7923 13.2968 15.7501C13.2968 16.708 14.0732 17.4845 15.0311 17.4845Z" fill="#0481BF"/>
<path d="M2.88012 3.74789C2.78604 3.84155 2.63206 3.8415 2.53799 3.74789L2.0647 3.277C1.97062 3.18344 1.97062 3.03016 2.0647 2.9366L4.5149 0.498769C4.60898 0.405114 4.76291 0.405114 4.85703 0.498769L5.33042 0.969666C5.42449 1.06332 5.42449 1.21646 5.33042 1.31011L2.88012 3.74789Z" fill="#6ECAD5"/>
<path d="M12.5002 20.0317C7.19288 20.0317 2.87512 15.7347 2.87512 10.4531C2.87512 5.17153 7.19293 0.874634 12.5002 0.874634C17.8075 0.874634 22.1253 5.17153 22.1253 10.4531C22.1254 15.7347 17.8075 20.0317 12.5002 20.0317ZM12.5002 1.57775C7.58058 1.57775 3.57823 5.55918 3.57823 10.4531C3.57823 15.347 7.58062 19.3285 12.5002 19.3285C17.4198 19.3285 21.4222 15.3471 21.4222 10.4531C21.4223 5.55923 17.4198 1.57775 12.5002 1.57775Z" fill="#C7FFEE"/>
<path d="M8.44629 22.0398L11.9958 14.6666C12.0888 14.4734 12.285 14.3505 12.5002 14.3505C12.7156 14.3505 12.9118 14.4734 13.0047 14.6666L16.5542 22.0398H18.5157L13.0047 10.5923C12.9118 10.3992 12.7156 10.2762 12.5002 10.2762C12.285 10.2762 12.0888 10.3992 11.9958 10.5923L6.48499 22.0398H8.44629Z" fill="#D0D5D5"/>
<g opacity="0.1">
<path d="M12.9733 10.5363C12.8718 10.3759 12.6939 10.2762 12.5002 10.2762C12.285 10.2762 12.0888 10.3992 11.9958 10.5923L6.48499 22.0398H7.43109L12.9419 10.5923C12.9513 10.5729 12.962 10.5543 12.9733 10.5363Z" fill="black"/>
</g>
<path d="M15.1233 10.4531C15.1233 11.8943 13.949 13.0628 12.5003 13.0628C11.0518 13.0628 9.87732 11.8943 9.87732 10.4531C9.87732 9.0118 11.0518 7.84332 12.5003 7.84332C13.949 7.84332 15.1233 9.0118 15.1233 10.4531Z" fill="#0059AD"/>
<path opacity="0.1" d="M10.5849 10.4531C10.5849 9.13125 11.573 8.03965 12.8541 7.86766C12.7383 7.85215 12.6203 7.84338 12.5003 7.84338C11.0518 7.84338 9.87732 9.01186 9.87732 10.4531C9.87732 11.8944 11.0518 13.0629 12.5003 13.0629C12.6203 13.0629 12.7383 13.0541 12.8541 13.0385C11.573 12.8665 10.5849 11.7749 10.5849 10.4531Z" fill="black"/>
<path d="M12.5004 11.5623C13.1162 11.5623 13.6154 11.0656 13.6154 10.4529C13.6154 9.84025 13.1162 9.34357 12.5004 9.34357C11.8846 9.34357 11.3854 9.84025 11.3854 10.4529C11.3854 11.0656 11.8846 11.5623 12.5004 11.5623Z" fill="#D0D5D5"/>
<path d="M19.6962 23.1272C19.6962 23.2599 19.5876 23.3684 19.4549 23.3684H5.53188C5.39913 23.3684 5.29053 23.2599 5.29053 23.1272V22.1747C5.29053 22.042 5.39913 21.9335 5.53188 21.9335H19.4549C19.5876 21.9335 19.6962 22.042 19.6962 22.1747V23.1272Z" fill="#0059AD"/>
<path opacity="0.1" d="M6.36901 23.1272V22.1747C6.36901 22.042 6.47761 21.9335 6.61036 21.9335H5.53188C5.39913 21.9335 5.29053 22.042 5.29053 22.1747V23.1272C5.29053 23.2599 5.39913 23.3684 5.53188 23.3684H6.61036C6.47761 23.3684 6.36901 23.2599 6.36901 23.1272Z" fill="black"/>
<path d="M22.8342 23.7588C22.8342 23.8914 22.7256 24 22.5928 24H2.40774C2.27499 24 2.16638 23.8915 2.16638 23.7588V23.155C2.16638 23.0223 2.27499 22.9138 2.40774 22.9138H22.5928C22.7256 22.9138 22.8342 23.0223 22.8342 23.155V23.7588Z" fill="#0481BF"/>
<path opacity="0.1" d="M3.12847 23.7588V23.155C3.12847 23.0223 3.23708 22.9138 3.36983 22.9138H2.40774C2.27499 22.9138 2.16638 23.0223 2.16638 23.155V23.7588C2.16638 23.8914 2.27499 24 2.40774 24H3.36987C3.23713 24 3.12847 23.8915 3.12847 23.7588Z" fill="black"/>
</g>
<defs>
<clipPath id="clip0_6939_820">
<rect width="24" height="24" fill="white" transform="translate(0.5)"/>
</clipPath>
</defs>
</svg>
