<svg width="25" height="24" viewBox="0 0 25 24" fill="none" xmlns="http://www.w3.org/2000/svg">
<g clip-path="url(#clip0_6939_862)">
<path d="M18.1016 23.4818C18.1016 23.6319 17.9787 23.7548 17.8286 23.7548H7.87993C7.72979 23.7548 7.60693 23.6319 7.60693 23.4818V9.55494C7.60693 9.40479 7.72979 9.28198 7.87993 9.28198H17.8286C17.9787 9.28198 18.1016 9.40479 18.1016 9.55494V23.4818Z" fill="#D0D5D5"/>
<path d="M8.93335 22.6628C8.80444 22.6628 8.69897 22.5573 8.69897 22.4284V10.6083C8.69897 10.4794 8.80444 10.374 8.93335 10.374H16.7752C16.9041 10.374 17.0095 10.4794 17.0095 10.6083V22.4284C17.0095 22.5573 16.9041 22.6628 16.7752 22.6628H8.93335V22.6628Z" fill="#6ECAD5"/>
<path d="M9.56607 10.374L8.69897 11.2379V12.2304L10.5622 10.374H9.56607Z" fill="#0CB8C0"/>
<path d="M11.1832 10.374L8.69897 12.8487V13.8411L12.1794 10.374H11.1832Z" fill="#0CB8C0"/>
<path d="M12.801 10.374L8.69897 14.4594V15.4518L13.7975 10.374H12.801Z" fill="#0CB8C0"/>
<path d="M14.4184 10.374L8.69897 16.07V17.0623L15.4149 10.374H14.4184Z" fill="#0CB8C0"/>
<path d="M16.9514 10.4558C16.9083 10.4062 16.8456 10.374 16.7752 10.374H16.037L8.69897 17.6803V18.6692C8.70929 18.661 8.71936 18.6523 8.72893 18.6427L16.9514 10.4558Z" fill="#0CB8C0"/>
<path d="M16.9863 11.04L8.69897 19.2914V20.2836L17.0095 12.0092V11.0192C17.0016 11.0258 16.9938 11.0326 16.9863 11.04Z" fill="#0CB8C0"/>
<path d="M8.69897 21.8944L17.0095 13.6186V12.6263L8.69897 20.9021V21.8944Z" fill="#0CB8C0"/>
<path d="M8.93336 22.6628H9.54738L17.0096 15.2289V14.2365L8.71216 22.5023C8.74342 22.5951 8.83042 22.6628 8.93336 22.6628Z" fill="#0CB8C0"/>
<path d="M11.1642 22.6628L17.0096 16.8404V15.848L10.1678 22.6628H11.1642Z" fill="#0CB8C0"/>
<path d="M12.7812 22.6628L17.0095 18.4511V17.4587L11.7849 22.6628H12.7812Z" fill="#0CB8C0"/>
<path d="M14.3989 22.6628L17.0096 20.0615V19.0689L13.4028 22.6628H14.3989Z" fill="#0CB8C0"/>
<path d="M16.0164 22.6628L17.0095 21.6728V20.6799L15.0205 22.6628H16.0164Z" fill="#0CB8C0"/>
<path d="M10.9912 19.1035C10.9912 19.2363 10.8826 19.345 10.7498 19.345H0.741453C0.608656 19.345 0.5 19.2363 0.5 19.1035V5.11835C0.5 4.98555 0.608656 4.87689 0.741453 4.87689H10.7498C10.8826 4.87689 10.9912 4.98555 10.9912 5.11835V19.1035Z" fill="#E9EAEC"/>
<path opacity="0.1" d="M1.33273 19.1035V5.11835C1.33273 4.98555 1.44139 4.87689 1.57419 4.87689H0.741453C0.608656 4.87689 0.5 4.98555 0.5 5.11835V19.1035C0.5 19.2363 0.608656 19.345 0.741453 19.345H1.57419C1.44139 19.345 1.33273 19.2363 1.33273 19.1035Z" fill="black"/>
<path d="M5.75229 9.61485C5.70964 9.61485 5.66904 9.59681 5.6405 9.56531L4.35518 8.14687C4.3032 8.08959 4.30353 8.00231 4.35589 7.94531L5.6412 6.54567C5.66965 6.51468 5.71001 6.49701 5.75234 6.49701C5.79462 6.49701 5.83493 6.51468 5.86348 6.54567L7.14875 7.94531C7.20106 8.00231 7.20134 8.08949 7.1494 8.14687L5.86409 9.56531C5.8355 9.59681 5.79495 9.61485 5.75229 9.61485Z" fill="#EE3835"/>
<path d="M5.75229 13.7137C5.70964 13.7137 5.66904 13.6956 5.6405 13.6642L4.35518 12.2458C4.3032 12.1885 4.30353 12.1012 4.35589 12.0441L5.6412 10.6446C5.66965 10.6136 5.71001 10.5958 5.75234 10.5958C5.79462 10.5958 5.83493 10.6136 5.86348 10.6446L7.14875 12.0441C7.20106 12.1012 7.20134 12.1885 7.1494 12.2458L5.86409 13.6642C5.8355 13.6956 5.79495 13.7137 5.75229 13.7137Z" fill="#EE3835"/>
<path d="M5.75229 17.6592C5.70964 17.6592 5.66904 17.6412 5.6405 17.6097L4.35518 16.1913C4.3032 16.134 4.30353 16.0469 4.35589 15.9898L5.6412 14.5901C5.66965 14.5591 5.71001 14.5414 5.75234 14.5414C5.79462 14.5414 5.83493 14.5591 5.86348 14.5901L7.14875 15.9898C7.20106 16.0468 7.20134 16.1339 7.1494 16.1913L5.86409 17.6097C5.8355 17.6412 5.79495 17.6592 5.75229 17.6592Z" fill="#EE3835"/>
<path d="M2.77776 6.25102C2.77776 5.82854 2.4359 5.4848 2.01571 5.4848H1.51733C1.32318 5.4848 1.16577 5.64216 1.16577 5.83636C1.16577 6.03057 1.32318 6.18793 1.51733 6.18793H2.01571C2.04819 6.18793 2.07463 6.21624 2.07463 6.25102C2.07463 6.28571 2.04819 6.31397 2.01571 6.31397H1.78044C1.58629 6.31397 1.42888 6.47133 1.42888 6.66554C1.42888 6.85974 1.58629 7.0171 1.78044 7.0171H2.01571C2.04819 7.0171 2.07463 7.04536 2.07463 7.08005C2.07463 7.11479 2.04819 7.14305 2.01571 7.14305H1.51733C1.32318 7.14305 1.16577 7.30041 1.16577 7.49461C1.16577 7.68882 1.32318 7.84618 1.51733 7.84618H2.01571C2.4359 7.84618 2.77776 7.50249 2.77776 7.08005C2.77776 6.92729 2.73257 6.78516 2.6556 6.66554C2.73252 6.54586 2.77776 6.40374 2.77776 6.25102Z" fill="#005289"/>
<path d="M18.9963 14.4716C18.9963 14.6044 18.8876 14.713 18.7548 14.713H8.74658C8.61378 14.713 8.50513 14.6044 8.50513 14.4716V0.486631C8.50513 0.353788 8.61378 0.245178 8.74658 0.245178H18.7548C18.8876 0.245178 18.9963 0.353788 18.9963 0.486631V14.4716Z" fill="#D0D5D5"/>
<path opacity="0.1" d="M9.34888 14.4716V0.486631C9.34888 0.353788 9.45753 0.245178 9.59033 0.245178H8.74658C8.61378 0.245178 8.50513 0.353788 8.50513 0.486631V14.4716C8.50513 14.6044 8.61378 14.713 8.74658 14.713H9.59033C9.45753 14.713 9.34888 14.6044 9.34888 14.4716Z" fill="black"/>
<path d="M14.7793 10.1807H14.1129V9.0356C14.1129 8.83554 13.9508 8.6734 13.7508 8.6734C13.5507 8.6734 13.3886 8.83554 13.3886 9.0356V10.1807H12.7219C12.5219 10.1807 12.3597 10.3429 12.3597 10.5429C12.3597 10.743 12.5219 10.9051 12.7219 10.9051H14.7793C14.9794 10.9051 15.1415 10.743 15.1415 10.5429C15.1415 10.3429 14.9794 10.1807 14.7793 10.1807Z" fill="#005289"/>
<path d="M11.3662 3.12401L10.6557 1.15836C10.5441 0.849684 10.3039 0.825684 10.233 0.825684C10.1621 0.825684 9.92194 0.849684 9.81033 1.1584L9.0998 3.12401C9.03178 3.31212 9.12919 3.51973 9.3173 3.58779C9.35799 3.60246 9.39952 3.6094 9.44039 3.6094C9.58861 3.6094 9.72774 3.51771 9.78103 3.37025L9.8588 3.15514H10.6072L10.685 3.37025C10.7529 3.5584 10.9606 3.65567 11.1487 3.58779C11.3368 3.51973 11.4342 3.31207 11.3662 3.12401ZM10.1206 2.43073L10.233 2.11981L10.3454 2.43073H10.1206Z" fill="#005289"/>
<path d="M16.5217 20.1327C16.2561 20.1327 16.0388 19.9154 16.0388 19.6498V12.1545C16.0388 11.8889 16.2561 11.6716 16.5217 11.6716H24.0171C24.2827 11.6716 24.5 11.8889 24.5 12.1545L24.5 19.6498C24.5 19.9154 24.2827 20.1327 24.0171 20.1327H16.5217Z" fill="#EE3835"/>
<path d="M22.7723 14.2283C23.2074 14.2283 23.5601 13.8756 23.5601 13.4405C23.5601 13.0053 23.2074 12.6526 22.7723 12.6526C22.3371 12.6526 21.9844 13.0053 21.9844 13.4405C21.9844 13.8756 22.3371 14.2283 22.7723 14.2283Z" fill="#3C3F44"/>
<path d="M20.2695 16.6991C20.7046 16.6991 21.0573 16.3463 21.0573 15.9112C21.0573 15.4761 20.7046 15.1234 20.2695 15.1234C19.8344 15.1234 19.4817 15.4761 19.4817 15.9112C19.4817 16.3463 19.8344 16.6991 20.2695 16.6991Z" fill="#3C3F44"/>
<path d="M17.7668 14.2283C18.2019 14.2283 18.5547 13.8756 18.5547 13.4405C18.5547 13.0054 18.2019 12.6526 17.7668 12.6526C17.3317 12.6526 16.979 13.0054 16.979 13.4405C16.979 13.8756 17.3317 14.2283 17.7668 14.2283Z" fill="#3C3F44"/>
<path d="M22.7723 19.1516C23.2074 19.1516 23.5601 18.7989 23.5601 18.3637C23.5601 17.9286 23.2074 17.5759 22.7723 17.5759C22.3371 17.5759 21.9844 17.9286 21.9844 18.3637C21.9844 18.7989 22.3371 19.1516 22.7723 19.1516Z" fill="#3C3F44"/>
<path d="M17.7669 19.1516C18.202 19.1516 18.5548 18.7989 18.5548 18.3637C18.5548 17.9286 18.202 17.5759 17.7669 17.5759C17.3317 17.5759 16.979 17.9286 16.979 18.3637C16.979 18.7989 17.3317 19.1516 17.7669 19.1516Z" fill="#3C3F44"/>
<path d="M15.3065 6.53704C15.3487 6.39122 15.372 6.23728 15.372 6.07795C15.372 5.16623 14.6297 4.42725 13.7141 4.42725C12.7984 4.42725 12.0561 5.16623 12.0561 6.07795C12.0561 6.23728 12.0791 6.39122 12.1215 6.53704C11.3021 6.63679 10.6672 7.33167 10.6672 8.17476C10.6672 9.08639 11.4094 9.82547 12.3249 9.82547C12.9068 9.82547 13.4181 9.52692 13.7141 9.07537C14.0099 9.52692 14.5213 9.82547 15.103 9.82547C16.0187 9.82547 16.761 9.08639 16.761 8.17476C16.7609 7.33167 16.1262 6.63679 15.3065 6.53704Z" fill="#0059AD"/>
</g>
<defs>
<clipPath id="clip0_6939_862">
<rect width="24" height="24" fill="white" transform="translate(0.5)"/>
</clipPath>
</defs>
</svg>
