<svg width="25" height="24" viewBox="0 0 25 24" fill="none" xmlns="http://www.w3.org/2000/svg">
<path d="M21.5651 5.43748C21.4431 5.43748 21.3253 5.42023 21.2135 5.38873V10.5H21.9166V5.38873C21.8048 5.42023 21.687 5.43748 21.5651 5.43748Z" fill="#C0272D"/>
<path d="M18.2318 5.69202H5.07166V7.79014H18.2318V5.69202Z" fill="#0481BF"/>
<path opacity="0.1" d="M6.14687 5.69202H5.07166V7.79014H6.14687V5.69202Z" fill="black"/>
<path d="M19.5717 17.1816H3.73169V22.9017H19.5717V17.1816Z" fill="#0481BF"/>
<path d="M15.1814 22.5902C15.1814 22.723 15.0727 22.8316 14.9399 22.8316H8.36362C8.23073 22.8316 8.12207 22.723 8.12207 22.5902V20.7544C8.12207 20.6216 8.23077 20.5129 8.36362 20.5129H14.9399C15.0727 20.5129 15.1814 20.6216 15.1814 20.7544L15.1814 22.5902Z" fill="#0059AD"/>
<path opacity="0.1" d="M9.0644 22.5902V20.7544C9.0644 20.6216 9.1731 20.5129 9.30595 20.5129H8.36362C8.23073 20.5129 8.12207 20.6216 8.12207 20.7544V22.5902C8.12207 22.723 8.23077 22.8316 8.36362 22.8316H9.30595C9.1731 22.8316 9.0644 22.723 9.0644 22.5902Z" fill="black"/>
<path d="M22.1154 10.4062H20.651V12.7213H22.1154C22.2483 12.7213 22.357 12.6126 22.357 12.4798V10.6476C22.357 10.5148 22.2483 10.4062 22.1154 10.4062Z" fill="#0059AD"/>
<path d="M20.266 9.63446H19.4755V13.493H20.266C20.5317 13.493 20.7492 13.2757 20.7492 13.0101V10.1174C20.7492 9.85177 20.5317 9.63446 20.266 9.63446Z" fill="#0481BF"/>
<path d="M19.5718 15.467V7.91735C19.5718 7.65176 19.3544 7.43445 19.0886 7.43445H4.21483C3.9491 7.43445 3.73169 7.65176 3.73169 7.91735V15.467H19.5718Z" fill="#EE3835"/>
<path d="M21.5651 5.54876C22.277 5.54876 22.8541 4.97343 22.8541 4.26373C22.8541 3.55403 22.277 2.9787 21.5651 2.9787C20.8531 2.9787 20.276 3.55403 20.276 4.26373C20.276 4.97343 20.8531 5.54876 21.5651 5.54876Z" fill="#EE3835"/>
<path opacity="0.1" d="M21.0758 4.26381C21.0758 3.69334 21.4489 3.21001 21.965 3.0422C21.839 3.00123 21.7047 2.97882 21.5651 2.97882C20.8531 2.97882 20.276 3.55407 20.276 4.26381C20.276 4.97354 20.8532 5.54884 21.5651 5.54884C21.7048 5.54884 21.839 5.52643 21.965 5.48546C21.4489 5.3176 21.0758 4.83427 21.0758 4.26381Z" fill="black"/>
<path d="M21.1578 23.7585C21.1578 23.8913 21.0491 24 20.9163 24H2.38735C2.2545 24 2.14575 23.8913 2.14575 23.7585V22.6305C2.14575 22.4977 2.25446 22.389 2.38735 22.389H20.9163C21.0492 22.389 21.1578 22.4977 21.1578 22.6305V23.7585Z" fill="#C0272D"/>
<path opacity="0.1" d="M3.33881 23.7585V22.6305C3.33881 22.4977 3.44752 22.389 3.58041 22.389H2.38735C2.2545 22.389 2.14575 22.4977 2.14575 22.6305V23.7585C2.14575 23.8913 2.25446 24 2.38735 24H3.58041C3.44752 24 3.33881 23.8913 3.33881 23.7585Z" fill="black"/>
<path d="M4.107 6.11789C3.93834 6.11789 3.80151 5.98153 3.80151 5.81334V2.46895C3.80151 2.30081 3.93834 2.16445 4.107 2.16445H8.56603L8.64525 1.97953C9.16036 0.777 10.3404 0 11.6518 0C12.9632 0 14.1433 0.777 14.6583 1.97958L14.7375 2.1645H19.1966C19.3653 2.1645 19.5021 2.30086 19.5021 2.469V5.81339C19.5021 5.98158 19.3653 6.11794 19.1966 6.11794L4.107 6.11789Z" fill="#C0272D"/>
<path d="M5.02623 5.05277C4.93998 5.05277 4.87 4.98302 4.87 4.89705V3.38528C4.87 3.29927 4.93998 3.22956 5.02623 3.22956H8.56604C8.99462 3.22956 9.38031 2.97569 9.54864 2.58278L9.62785 2.39786C9.97468 1.58824 10.7691 1.06506 11.6518 1.06506C12.5345 1.06506 13.3289 1.58819 13.6757 2.39781L13.7549 2.58278C13.9233 2.97569 14.309 3.22956 14.7376 3.22956H18.2773C18.3636 3.22956 18.4336 3.29927 18.4336 3.38528V4.89705C18.4336 4.98302 18.3636 5.05277 18.2773 5.05277H5.02623Z" fill="#EE3835"/>
<path d="M12.1709 4.06071C12.1522 4.06071 12.1334 4.05743 12.1153 4.05064L11.6518 3.8772L11.1884 4.05064C11.1703 4.05739 11.1514 4.06071 11.1327 4.06071C11.0997 4.06071 11.067 4.0504 11.0395 4.03053C10.9964 3.99931 10.9719 3.94864 10.9743 3.89562L10.9965 3.40259L10.6879 3.01681C10.6547 2.97528 10.6447 2.92001 10.6611 2.86948C10.6775 2.81899 10.7183 2.78014 10.7696 2.76598L11.2468 2.63478L11.5195 2.22289C11.5488 2.17859 11.5985 2.15192 11.6517 2.15192C11.705 2.15192 11.7547 2.17854 11.7839 2.22284L12.0567 2.63478L12.5339 2.76598C12.5851 2.78014 12.626 2.81899 12.6424 2.86948C12.6589 2.91992 12.6488 2.97528 12.6156 3.01681L12.307 3.40259L12.3292 3.89562C12.3315 3.94864 12.3071 3.99935 12.264 4.03057C12.2366 4.0504 12.2039 4.06071 12.1709 4.06071Z" fill="#FECF05"/>
<path d="M5.06779 14.0866C4.98805 14.0866 4.92285 14.0214 4.92285 13.9417V8.76191C4.92285 8.68222 4.9881 8.61707 5.06779 8.61707H18.2359C18.3156 8.61707 18.3809 8.68227 18.3809 8.76191V13.9417C18.3809 14.0214 18.3156 14.0866 18.2359 14.0866H5.06779Z" fill="#E9EAEC"/>
<path d="M6.79578 12.5625V12.8037C6.79578 12.9978 6.95318 13.1552 7.14734 13.1552C7.3415 13.1552 7.4989 12.9978 7.4989 12.8037V12.5625H6.79578Z" fill="#FECF05"/>
<path d="M7.14734 10.125C7.26973 10.125 7.38781 10.1437 7.4989 10.1783V9.83246C7.4989 9.6383 7.3415 9.4809 7.14734 9.4809C6.95318 9.4809 6.79578 9.6383 6.79578 9.83246V10.1783C6.90682 10.1437 7.0249 10.125 7.14734 10.125Z" fill="#F8B816"/>
<path d="M16.1564 10.125C16.2788 10.125 16.3968 10.1437 16.5079 10.1783V9.83246C16.5079 9.6383 16.3505 9.4809 16.1564 9.4809C15.9622 9.4809 15.8048 9.6383 15.8048 9.83246V10.1783C15.916 10.1437 16.034 10.125 16.1564 10.125Z" fill="#F8B816"/>
<path d="M13.9137 8.617H9.39026V14.0864H13.9137V8.617Z" fill="#3C3F44"/>
<path d="M11.3003 12.5625V12.8037C11.3003 12.9978 11.4577 13.1552 11.6519 13.1552C11.846 13.1552 12.0034 12.9978 12.0034 12.8037V12.5625H11.3003Z" fill="#FECF05"/>
<path d="M11.6519 10.125C11.7742 10.125 11.8923 10.1437 12.0034 10.1783V9.83246C12.0034 9.6383 11.846 9.4809 11.6519 9.4809C11.4577 9.4809 11.3003 9.6383 11.3003 9.83246V10.1783C11.4113 10.1437 11.5294 10.125 11.6519 10.125Z" fill="#F8B816"/>
<path d="M18.2359 8.2655H5.06779C4.79399 8.2655 4.57129 8.48821 4.57129 8.76191V13.9417C4.57129 14.2154 4.79404 14.4381 5.06779 14.4381H18.2359C18.5097 14.4381 18.7324 14.2154 18.7324 13.9417V8.76191C18.7324 8.48821 18.5097 8.2655 18.2359 8.2655ZM5.27441 8.96863H9.03871V13.735H5.27441V8.96863ZM9.74184 13.735V8.96863H13.562V13.735H9.74184ZM18.0293 13.735H14.265V8.96863H18.0293V13.735Z" fill="#C0272D"/>
<path d="M15.8048 12.5625V12.8037C15.8048 12.9978 15.9622 13.1552 16.1564 13.1552C16.3505 13.1552 16.5079 12.9978 16.5079 12.8037V12.5625H15.8048Z" fill="#FECF05"/>
<path d="M5.94964 4.53778C6.16535 4.53778 6.34021 4.36347 6.34021 4.14844C6.34021 3.93341 6.16535 3.75909 5.94964 3.75909C5.73394 3.75909 5.55908 3.93341 5.55908 4.14844C5.55908 4.36347 5.73394 4.53778 5.94964 4.53778Z" fill="#FECF05"/>
<path d="M7.22552 4.53778C7.44123 4.53778 7.61609 4.36347 7.61609 4.14844C7.61609 3.93341 7.44123 3.75909 7.22552 3.75909C7.00982 3.75909 6.83496 3.93341 6.83496 4.14844C6.83496 4.36347 7.00982 4.53778 7.22552 4.53778Z" fill="#3C3F44"/>
<path d="M8.50152 4.53778C8.71723 4.53778 8.89209 4.36347 8.89209 4.14844C8.89209 3.93341 8.71723 3.75909 8.50152 3.75909C8.28582 3.75909 8.11096 3.93341 8.11096 4.14844C8.11096 4.36347 8.28582 4.53778 8.50152 4.53778Z" fill="#FECF05"/>
<path d="M14.8024 4.53778C15.0181 4.53778 15.193 4.36347 15.193 4.14844C15.193 3.93341 15.0181 3.75909 14.8024 3.75909C14.5867 3.75909 14.4119 3.93341 14.4119 4.14844C14.4119 4.36347 14.5867 4.53778 14.8024 4.53778Z" fill="#FECF05"/>
<path d="M16.0779 4.53778C16.2936 4.53778 16.4685 4.36347 16.4685 4.14844C16.4685 3.93341 16.2936 3.75909 16.0779 3.75909C15.8622 3.75909 15.6874 3.93341 15.6874 4.14844C15.6874 4.36347 15.8622 4.53778 16.0779 4.53778Z" fill="#3C3F44"/>
<path d="M17.3538 4.53778C17.5695 4.53778 17.7444 4.36347 17.7444 4.14844C17.7444 3.93341 17.5695 3.75909 17.3538 3.75909C17.1381 3.75909 16.9633 3.93341 16.9633 4.14844C16.9633 4.36347 17.1381 4.53778 17.3538 4.53778Z" fill="#FECF05"/>
<path d="M20.4651 17.7706C20.4651 17.9034 20.3564 18.0121 20.2236 18.0121H3.08005C2.9472 18.0121 2.8385 17.9034 2.8385 17.7706V15.58C2.8385 15.4472 2.9472 15.3385 3.08005 15.3385H20.2236C20.3565 15.3385 20.4651 15.4472 20.4651 15.58V17.7706Z" fill="#C0272D"/>
<path opacity="0.1" d="M3.5885 17.7706V15.58C3.5885 15.4472 3.6972 15.3385 3.83005 15.3385H3.08005C2.9472 15.3385 2.8385 15.4472 2.8385 15.58V17.7706C2.8385 17.9034 2.9472 18.0121 3.08005 18.0121H3.83009C3.69725 18.0121 3.5885 17.9034 3.5885 17.7706Z" fill="black"/>
<path d="M18.2795 16.2488H14.6383C14.4957 16.2488 14.379 16.3655 14.379 16.508V17.9855H18.5388V16.508C18.5389 16.3654 18.4221 16.2488 18.2795 16.2488Z" fill="#D0D5D5"/>
<path d="M7.58637 15.3384H4.92261V18.0122H7.58637V15.3384Z" fill="#D0D5D5"/>
<path d="M19.5717 18.8224H18.2866C18.0925 18.8224 17.9351 18.9798 17.9351 19.174C17.9351 19.3681 18.0925 19.5255 18.2866 19.5255H19.5717V18.8224Z" fill="#0059AD"/>
<path d="M19.5717 19.8231H18.2866C18.0925 19.8231 17.9351 19.9805 17.9351 20.1747C17.9351 20.3688 18.0925 20.5262 18.2866 20.5262H19.5717V19.8231Z" fill="#0059AD"/>
<path d="M19.5717 20.8239H18.2866C18.0925 20.8239 17.9351 20.9813 17.9351 21.1754C17.9351 21.3696 18.0925 21.527 18.2866 21.527H19.5717V20.8239Z" fill="#0059AD"/>
<path d="M5.01686 18.8224H3.73169V19.5255H5.01681C5.21097 19.5255 5.36838 19.3681 5.36838 19.174C5.36842 18.9798 5.21102 18.8224 5.01686 18.8224Z" fill="#0059AD"/>
<path d="M5.01686 19.8231H3.73169V20.5262H5.01681C5.21097 20.5262 5.36838 20.3688 5.36838 20.1747C5.36842 19.9805 5.21102 19.8231 5.01686 19.8231Z" fill="#0059AD"/>
<path d="M5.01686 20.8239H3.73169V21.527H5.01681C5.21097 21.527 5.36838 21.3696 5.36838 21.1754C5.36842 20.9813 5.21102 20.8239 5.01686 20.8239Z" fill="#0059AD"/>
<path d="M6.65265 19.5847C6.86835 19.5847 7.04321 19.4103 7.04321 19.1953C7.04321 18.9803 6.86835 18.806 6.65265 18.806C6.43695 18.806 6.26208 18.9803 6.26208 19.1953C6.26208 19.4103 6.43695 19.5847 6.65265 19.5847Z" fill="#0059AD"/>
<path d="M8.63373 19.5847C8.84943 19.5847 9.02429 19.4103 9.02429 19.1953C9.02429 18.9803 8.84943 18.806 8.63373 18.806C8.41802 18.806 8.24316 18.9803 8.24316 19.1953C8.24316 19.4103 8.41802 19.5847 8.63373 19.5847Z" fill="#0059AD"/>
<path d="M10.6146 19.5847C10.8303 19.5847 11.0051 19.4103 11.0051 19.1953C11.0051 18.9803 10.8303 18.806 10.6146 18.806C10.3989 18.806 10.224 18.9803 10.224 19.1953C10.224 19.4103 10.3989 19.5847 10.6146 19.5847Z" fill="#0059AD"/>
<path d="M12.5955 19.5847C12.8112 19.5847 12.9861 19.4103 12.9861 19.1953C12.9861 18.9803 12.8112 18.806 12.5955 18.806C12.3798 18.806 12.205 18.9803 12.205 19.1953C12.205 19.4103 12.3798 19.5847 12.5955 19.5847Z" fill="#0059AD"/>
<path d="M14.5765 19.5847C14.7922 19.5847 14.967 19.4103 14.967 19.1953C14.967 18.9803 14.7922 18.806 14.5765 18.806C14.3608 18.806 14.1859 18.9803 14.1859 19.1953C14.1859 19.4103 14.3608 19.5847 14.5765 19.5847Z" fill="#0059AD"/>
<path d="M16.5574 19.5847C16.7731 19.5847 16.948 19.4103 16.948 19.1953C16.948 18.9803 16.7731 18.806 16.5574 18.806C16.3417 18.806 16.1669 18.9803 16.1669 19.1953C16.1669 19.4103 16.3417 19.5847 16.5574 19.5847Z" fill="#0059AD"/>
<path d="M17.5732 17.3672H15.3447C15.1506 17.3672 14.9932 17.2098 14.9932 17.0156C14.9932 16.8215 15.1506 16.6641 15.3447 16.6641H17.5732C17.7673 16.6641 17.9247 16.8215 17.9247 17.0156C17.9247 17.2098 17.7673 17.3672 17.5732 17.3672Z" fill="#C0272D"/>
<path d="M17.3376 12.0937V11.1675C17.3376 10.5177 16.8077 9.98895 16.1564 9.98895C15.5052 9.98895 14.9753 10.5176 14.9753 11.1675V12.0937H17.3376Z" fill="#FECF05"/>
<path d="M12.8329 12.0937V11.1675C12.8329 10.5177 12.303 9.98895 11.6518 9.98895C11.0005 9.98895 10.4707 10.5176 10.4707 11.1675V12.0937H12.8329Z" fill="#FECF05"/>
<path d="M8.32836 12.0937V11.1675C8.32836 10.5177 7.79853 9.98895 7.14725 9.98895C6.49601 9.98895 5.96619 10.5176 5.96619 11.1675V12.0937H8.32836Z" fill="#FECF05"/>
<path d="M8.37086 12.6942H5.92371C5.72955 12.6942 5.57214 12.5368 5.57214 12.3427C5.57214 12.1485 5.72955 11.9911 5.92371 11.9911H8.37086C8.56502 11.9911 8.72242 12.1485 8.72242 12.3427C8.72242 12.5368 8.56502 12.6942 8.37086 12.6942Z" fill="#F8B816"/>
<path d="M12.8754 12.6942H10.4282C10.2341 12.6942 10.0767 12.5368 10.0767 12.3427C10.0767 12.1485 10.2341 11.9911 10.4282 11.9911H12.8754C13.0696 11.9911 13.227 12.1485 13.227 12.3427C13.227 12.5368 13.0696 12.6942 12.8754 12.6942Z" fill="#F8B816"/>
<path d="M17.3799 12.6942H14.9327C14.7386 12.6942 14.5812 12.5368 14.5812 12.3427C14.5812 12.1485 14.7386 11.9911 14.9327 11.9911H17.3799C17.5741 11.9911 17.7315 12.1485 17.7315 12.3427C17.7315 12.5368 17.5741 12.6942 17.3799 12.6942Z" fill="#F8B816"/>
</svg>
